<?xml version="1.0" encoding="UTF-8" standalone="no"?>
<!DOCTYPE svg PUBLIC "-//W3C//DTD SVG 1.1//EN"
 "http://www.w3.org/Graphics/SVG/1.1/DTD/svg11.dtd">
<!-- Generated by graphviz version 2.38.0 (20140413.2041)
 -->
<!-- Title: XBot::matlogger2::Backend Pages: 1 -->
<svg width="276pt" height="215pt"
 viewBox="0.00 0.00 276.00 215.00" xmlns="http://www.w3.org/2000/svg" xmlns:xlink="http://www.w3.org/1999/xlink">
<g id="graph0" class="graph" transform="scale(1 1) rotate(0) translate(4 211)">
<title>XBot::matlogger2::Backend</title>
<!-- Node1 -->
<g id="node1" class="node"><title>Node1</title>
<polygon fill="#bfbfbf" stroke="black" points="47,-116.5 47,-206.5 184,-206.5 184,-116.5 47,-116.5"/>
<text text-anchor="middle" x="115.5" y="-194.5" font-family="Helvetica,sans-Serif" font-size="10.00">XBot::matlogger2::Backend</text>
<polyline fill="none" stroke="black" points="47,-187.5 184,-187.5 "/>
<text text-anchor="middle" x="115.5" y="-175.5" font-family="Helvetica,sans-Serif" font-size="10.00"> </text>
<polyline fill="none" stroke="black" points="47,-168.5 184,-168.5 "/>
<text text-anchor="start" x="55" y="-156.5" font-family="Helvetica,sans-Serif" font-size="10.00">+ init()</text>
<text text-anchor="start" x="55" y="-145.5" font-family="Helvetica,sans-Serif" font-size="10.00">+ write()</text>
<text text-anchor="start" x="55" y="-134.5" font-family="Helvetica,sans-Serif" font-size="10.00">+ close()</text>
<text text-anchor="start" x="55" y="-123.5" font-family="Helvetica,sans-Serif" font-size="10.00">+ MakeInstance()</text>
</g>
<!-- Node2 -->
<g id="node2" class="node"><title>Node2</title>
<g id="a_node2"><a xlink:href="classDummyBackend.html" target="_top" xlink:title="{DummyBackend\n||+ close()\l+ init()\l+ write()\l}">
<polygon fill="none" stroke="black" points="0,-0.5 0,-79.5 89,-79.5 89,-0.5 0,-0.5"/>
<text text-anchor="middle" x="44.5" y="-67.5" font-family="Helvetica,sans-Serif" font-size="10.00">DummyBackend</text>
<polyline fill="none" stroke="black" points="0,-60.5 89,-60.5 "/>
<text text-anchor="middle" x="44.5" y="-48.5" font-family="Helvetica,sans-Serif" font-size="10.00"> </text>
<polyline fill="none" stroke="black" points="0,-41.5 89,-41.5 "/>
<text text-anchor="start" x="8" y="-29.5" font-family="Helvetica,sans-Serif" font-size="10.00">+ close()</text>
<text text-anchor="start" x="8" y="-18.5" font-family="Helvetica,sans-Serif" font-size="10.00">+ init()</text>
<text text-anchor="start" x="8" y="-7.5" font-family="Helvetica,sans-Serif" font-size="10.00">+ write()</text>
</a>
</g>
</g>
<!-- Node1&#45;&gt;Node2 -->
<g id="edge1" class="edge"><title>Node1&#45;&gt;Node2</title>
<path fill="none" stroke="midnightblue" d="M84.0218,-107.519C78.4934,-98.2143 72.8333,-88.6877 67.5869,-79.8576"/>
<polygon fill="none" stroke="midnightblue" points="81.147,-109.533 89.2639,-116.342 87.165,-105.957 81.147,-109.533"/>
</g>
<!-- Node3 -->
<g id="node3" class="node"><title>Node3</title>
<g id="a_node3"><a xlink:href="classXBot_1_1matlogger2_1_1MatioBackend.html" target="_top" xlink:title="{XBot::matlogger2::MatioBackend\n||+ init()\l+ write()\l+ close()\l}">
<polygon fill="none" stroke="black" points="107,-0.5 107,-79.5 268,-79.5 268,-0.5 107,-0.5"/>
<text text-anchor="middle" x="187.5" y="-67.5" font-family="Helvetica,sans-Serif" font-size="10.00">XBot::matlogger2::MatioBackend</text>
<polyline fill="none" stroke="black" points="107,-60.5 268,-60.5 "/>
<text text-anchor="middle" x="187.5" y="-48.5" font-family="Helvetica,sans-Serif" font-size="10.00"> </text>
<polyline fill="none" stroke="black" points="107,-41.5 268,-41.5 "/>
<text text-anchor="start" x="115" y="-29.5" font-family="Helvetica,sans-Serif" font-size="10.00">+ init()</text>
<text text-anchor="start" x="115" y="-18.5" font-family="Helvetica,sans-Serif" font-size="10.00">+ write()</text>
<text text-anchor="start" x="115" y="-7.5" font-family="Helvetica,sans-Serif" font-size="10.00">+ close()</text>
</a>
</g>
</g>
<!-- Node1&#45;&gt;Node3 -->
<g id="edge2" class="edge"><title>Node1&#45;&gt;Node3</title>
<path fill="none" stroke="midnightblue" d="M147.422,-107.519C153.028,-98.2143 158.768,-88.6877 164.088,-79.8576"/>
<polygon fill="none" stroke="midnightblue" points="144.268,-105.97 142.106,-116.342 150.264,-109.583 144.268,-105.97"/>
</g>
</g>
</svg>
