<?xml version="1.0" encoding="UTF-8" standalone="no"?>
<!DOCTYPE svg PUBLIC "-//W3C//DTD SVG 1.1//EN"
 "http://www.w3.org/Graphics/SVG/1.1/DTD/svg11.dtd">
<!-- Generated by graphviz version 2.38.0 (20140413.2041)
 -->
<!-- Title: /home/alaurenzi/Code/advr&#45;superbuild/external/MatLogger2/src/matlogger2_backend.h Pages: 1 -->
<svg width="510pt" height="228pt"
 viewBox="0.00 0.00 509.50 228.00" xmlns="http://www.w3.org/2000/svg" xmlns:xlink="http://www.w3.org/1999/xlink">
<g id="graph0" class="graph" transform="scale(1 1) rotate(0) translate(4 224)">
<title>/home/alaurenzi/Code/advr&#45;superbuild/external/MatLogger2/src/matlogger2_backend.h</title>
<!-- Node1 -->
<g id="node1" class="node"><title>Node1</title>
<polygon fill="#bfbfbf" stroke="black" points="197.5,-167.5 197.5,-219.5 335.5,-219.5 335.5,-167.5 197.5,-167.5"/>
<text text-anchor="start" x="205.5" y="-207.5" font-family="Helvetica,sans-Serif" font-size="10.00">/home/alaurenzi/Code</text>
<text text-anchor="start" x="205.5" y="-196.5" font-family="Helvetica,sans-Serif" font-size="10.00">/advr&#45;superbuild/external</text>
<text text-anchor="start" x="205.5" y="-185.5" font-family="Helvetica,sans-Serif" font-size="10.00">/MatLogger2/src/matlogger2</text>
<text text-anchor="middle" x="266.5" y="-174.5" font-family="Helvetica,sans-Serif" font-size="10.00">_backend.h</text>
</g>
<!-- Node2 -->
<g id="node2" class="node"><title>Node2</title>
<g id="a_node2"><a xlink:href="matio__backend_8h.html" target="_top" xlink:title="/home/alaurenzi/Code\l/advr&#45;superbuild/external\l/MatLogger2/src/matio_backend.h">
<polygon fill="none" stroke="black" points="5.5,-84 5.5,-125 169.5,-125 169.5,-84 5.5,-84"/>
<text text-anchor="start" x="13.5" y="-113" font-family="Helvetica,sans-Serif" font-size="10.00">/home/alaurenzi/Code</text>
<text text-anchor="start" x="13.5" y="-102" font-family="Helvetica,sans-Serif" font-size="10.00">/advr&#45;superbuild/external</text>
<text text-anchor="middle" x="87.5" y="-91" font-family="Helvetica,sans-Serif" font-size="10.00">/MatLogger2/src/matio_backend.h</text>
</a>
</g>
</g>
<!-- Node1&#45;&gt;Node2 -->
<g id="edge1" class="edge"><title>Node1&#45;&gt;Node2</title>
<path fill="none" stroke="midnightblue" d="M205.453,-162.829C179.807,-150.364 150.682,-136.208 127.79,-125.082"/>
<polygon fill="midnightblue" stroke="midnightblue" points="204.202,-166.112 214.726,-167.336 207.262,-159.817 204.202,-166.112"/>
</g>
<!-- Node4 -->
<g id="node4" class="node"><title>Node4</title>
<g id="a_node4"><a xlink:href="matlogger2_8cpp.html" target="_top" xlink:title="/home/alaurenzi/Code\l/advr&#45;superbuild/external\l/MatLogger2/src/matlogger2.cpp">
<polygon fill="none" stroke="black" points="188,-84 188,-125 345,-125 345,-84 188,-84"/>
<text text-anchor="start" x="196" y="-113" font-family="Helvetica,sans-Serif" font-size="10.00">/home/alaurenzi/Code</text>
<text text-anchor="start" x="196" y="-102" font-family="Helvetica,sans-Serif" font-size="10.00">/advr&#45;superbuild/external</text>
<text text-anchor="middle" x="266.5" y="-91" font-family="Helvetica,sans-Serif" font-size="10.00">/MatLogger2/src/matlogger2.cpp</text>
</a>
</g>
</g>
<!-- Node1&#45;&gt;Node4 -->
<g id="edge3" class="edge"><title>Node1&#45;&gt;Node4</title>
<path fill="none" stroke="midnightblue" d="M266.5,-157.155C266.5,-146.21 266.5,-134.549 266.5,-125.082"/>
<polygon fill="midnightblue" stroke="midnightblue" points="263,-157.336 266.5,-167.336 270,-157.336 263,-157.336"/>
</g>
<!-- Node5 -->
<g id="node5" class="node"><title>Node5</title>
<g id="a_node5"><a xlink:href="matlogger2__backend_8cpp.html" target="_top" xlink:title="/home/alaurenzi/Code\l/advr&#45;superbuild/external\l/MatLogger2/src/matlogger2\l_backend.cpp">
<polygon fill="none" stroke="black" points="363.5,-78.5 363.5,-130.5 501.5,-130.5 501.5,-78.5 363.5,-78.5"/>
<text text-anchor="start" x="371.5" y="-118.5" font-family="Helvetica,sans-Serif" font-size="10.00">/home/alaurenzi/Code</text>
<text text-anchor="start" x="371.5" y="-107.5" font-family="Helvetica,sans-Serif" font-size="10.00">/advr&#45;superbuild/external</text>
<text text-anchor="start" x="371.5" y="-96.5" font-family="Helvetica,sans-Serif" font-size="10.00">/MatLogger2/src/matlogger2</text>
<text text-anchor="middle" x="432.5" y="-85.5" font-family="Helvetica,sans-Serif" font-size="10.00">_backend.cpp</text>
</a>
</g>
</g>
<!-- Node1&#45;&gt;Node5 -->
<g id="edge4" class="edge"><title>Node1&#45;&gt;Node5</title>
<path fill="none" stroke="midnightblue" d="M323.483,-162.635C343.385,-152.205 365.507,-140.611 384.594,-130.607"/>
<polygon fill="midnightblue" stroke="midnightblue" points="321.747,-159.594 314.514,-167.336 324.996,-165.794 321.747,-159.594"/>
</g>
<!-- Node3 -->
<g id="node3" class="node"><title>Node3</title>
<g id="a_node3"><a xlink:href="matio__backend_8cpp.html" target="_top" xlink:title="/home/alaurenzi/Code\l/advr&#45;superbuild/external\l/MatLogger2/src/matio_backend.cpp">
<polygon fill="none" stroke="black" points="0,-0.5 0,-41.5 175,-41.5 175,-0.5 0,-0.5"/>
<text text-anchor="start" x="8" y="-29.5" font-family="Helvetica,sans-Serif" font-size="10.00">/home/alaurenzi/Code</text>
<text text-anchor="start" x="8" y="-18.5" font-family="Helvetica,sans-Serif" font-size="10.00">/advr&#45;superbuild/external</text>
<text text-anchor="middle" x="87.5" y="-7.5" font-family="Helvetica,sans-Serif" font-size="10.00">/MatLogger2/src/matio_backend.cpp</text>
</a>
</g>
</g>
<!-- Node2&#45;&gt;Node3 -->
<g id="edge2" class="edge"><title>Node2&#45;&gt;Node3</title>
<path fill="none" stroke="midnightblue" d="M87.5,-73.5646C87.5,-62.8819 87.5,-51.1303 87.5,-41.5472"/>
<polygon fill="midnightblue" stroke="midnightblue" points="84.0001,-73.7711 87.5,-83.7711 91.0001,-73.7712 84.0001,-73.7711"/>
</g>
</g>
</svg>
