<?xml version="1.0" encoding="UTF-8" standalone="no"?>
<!DOCTYPE svg PUBLIC "-//W3C//DTD SVG 1.1//EN"
 "http://www.w3.org/Graphics/SVG/1.1/DTD/svg11.dtd">
<!-- Generated by graphviz version 2.38.0 (20140413.2041)
 -->
<!-- Title: /home/arturo/Code/advr&#45;superbuild/external/MatLogger2/src/matlogger2_backend.cpp Pages: 1 -->
<svg width="560pt" height="162pt"
 viewBox="0.00 0.00 560.00 162.00" xmlns="http://www.w3.org/2000/svg" xmlns:xlink="http://www.w3.org/1999/xlink">
<g id="graph0" class="graph" transform="scale(1 1) rotate(0) translate(4 158)">
<title>/home/arturo/Code/advr&#45;superbuild/external/MatLogger2/src/matlogger2_backend.cpp</title>
<!-- Node1 -->
<g id="node1" class="node"><title>Node1</title>
<polygon fill="#bfbfbf" stroke="black" points="108,-112.5 108,-153.5 263,-153.5 263,-112.5 108,-112.5"/>
<text text-anchor="start" x="116" y="-141.5" font-family="Helvetica,sans-Serif" font-size="10.00">/home/arturo/Code/advr</text>
<text text-anchor="start" x="116" y="-130.5" font-family="Helvetica,sans-Serif" font-size="10.00">&#45;superbuild/external/MatLogger2</text>
<text text-anchor="middle" x="185.5" y="-119.5" font-family="Helvetica,sans-Serif" font-size="10.00">/src/matlogger2_backend.cpp</text>
</g>
<!-- Node2 -->
<g id="node2" class="node"><title>Node2</title>
<polygon fill="none" stroke="#bfbfbf" points="0,-56.5 0,-75.5 35,-75.5 35,-56.5 0,-56.5"/>
<text text-anchor="middle" x="17.5" y="-63.5" font-family="Helvetica,sans-Serif" font-size="10.00">map</text>
</g>
<!-- Node1&#45;&gt;Node2 -->
<g id="edge1" class="edge"><title>Node1&#45;&gt;Node2</title>
<path fill="none" stroke="midnightblue" d="M135.094,-112.498C105.363,-100.995 68.9086,-86.8902 44.5422,-77.4628"/>
<polygon fill="midnightblue" stroke="midnightblue" points="45.7976,-74.1957 35.2084,-73.8515 43.2717,-80.7241 45.7976,-74.1957"/>
</g>
<!-- Node3 -->
<g id="node3" class="node"><title>Node3</title>
<polygon fill="none" stroke="#bfbfbf" points="226,-0.5 226,-19.5 267,-19.5 267,-0.5 226,-0.5"/>
<text text-anchor="middle" x="246.5" y="-7.5" font-family="Helvetica,sans-Serif" font-size="10.00">string</text>
</g>
<!-- Node1&#45;&gt;Node3 -->
<g id="edge2" class="edge"><title>Node1&#45;&gt;Node3</title>
<path fill="none" stroke="midnightblue" d="M124.248,-112.351C92.8651,-98.9505 64.645,-79.4142 82.5,-56 98.5918,-34.898 172.952,-21.2426 215.813,-14.9811"/>
<polygon fill="midnightblue" stroke="midnightblue" points="216.563,-18.41 225.976,-13.5484 215.585,-11.4786 216.563,-18.41"/>
</g>
<!-- Node4 -->
<g id="node4" class="node"><title>Node4</title>
<polygon fill="none" stroke="#bfbfbf" points="91.5,-56.5 91.5,-75.5 145.5,-75.5 145.5,-56.5 91.5,-56.5"/>
<text text-anchor="middle" x="118.5" y="-63.5" font-family="Helvetica,sans-Serif" font-size="10.00">iostream</text>
</g>
<!-- Node1&#45;&gt;Node4 -->
<g id="edge3" class="edge"><title>Node1&#45;&gt;Node4</title>
<path fill="none" stroke="midnightblue" d="M165.398,-112.498C155.619,-103.011 144.017,-91.7557 134.8,-82.8131"/>
<polygon fill="midnightblue" stroke="midnightblue" points="137.033,-80.1036 127.419,-75.6525 132.159,-85.1277 137.033,-80.1036"/>
</g>
<!-- Node5 -->
<g id="node5" class="node"><title>Node5</title>
<polygon fill="none" stroke="#bfbfbf" points="164,-56.5 164,-75.5 207,-75.5 207,-56.5 164,-56.5"/>
<text text-anchor="middle" x="185.5" y="-63.5" font-family="Helvetica,sans-Serif" font-size="10.00">cstdio</text>
</g>
<!-- Node1&#45;&gt;Node5 -->
<g id="edge4" class="edge"><title>Node1&#45;&gt;Node5</title>
<path fill="none" stroke="midnightblue" d="M185.5,-112.498C185.5,-104.065 185.5,-94.2351 185.5,-85.874"/>
<polygon fill="midnightblue" stroke="midnightblue" points="189,-85.6525 185.5,-75.6525 182,-85.6525 189,-85.6525"/>
</g>
<!-- Node6 -->
<g id="node6" class="node"><title>Node6</title>
<polygon fill="none" stroke="#bfbfbf" points="225.5,-56.5 225.5,-75.5 271.5,-75.5 271.5,-56.5 225.5,-56.5"/>
<text text-anchor="middle" x="248.5" y="-63.5" font-family="Helvetica,sans-Serif" font-size="10.00">dlfcn.h</text>
</g>
<!-- Node1&#45;&gt;Node6 -->
<g id="edge5" class="edge"><title>Node1&#45;&gt;Node6</title>
<path fill="none" stroke="midnightblue" d="M204.402,-112.498C213.504,-103.107 224.286,-91.9829 232.91,-83.0848"/>
<polygon fill="midnightblue" stroke="midnightblue" points="235.667,-85.2691 240.114,-75.6525 230.641,-80.3973 235.667,-85.2691"/>
</g>
<!-- Node7 -->
<g id="node7" class="node"><title>Node7</title>
<polygon fill="none" stroke="#bfbfbf" points="290,-56.5 290,-75.5 419,-75.5 419,-56.5 290,-56.5"/>
<text text-anchor="middle" x="354.5" y="-63.5" font-family="Helvetica,sans-Serif" font-size="10.00">boost/algorithm/string.hpp</text>
</g>
<!-- Node1&#45;&gt;Node7 -->
<g id="edge6" class="edge"><title>Node1&#45;&gt;Node7</title>
<path fill="none" stroke="midnightblue" d="M236.206,-112.498C264.234,-101.718 298.202,-88.6531 322.535,-79.2941"/>
<polygon fill="midnightblue" stroke="midnightblue" points="323.927,-82.5091 332.004,-75.6525 321.414,-75.9756 323.927,-82.5091"/>
</g>
<!-- Node8 -->
<g id="node8" class="node"><title>Node8</title>
<g id="a_node8"><a xlink:href="matlogger2__backend_8h.html" target="_top" xlink:title="matlogger2_backend.h">
<polygon fill="none" stroke="black" points="437,-56.5 437,-75.5 552,-75.5 552,-56.5 437,-56.5"/>
<text text-anchor="middle" x="494.5" y="-63.5" font-family="Helvetica,sans-Serif" font-size="10.00">matlogger2_backend.h</text>
</a>
</g>
</g>
<!-- Node1&#45;&gt;Node8 -->
<g id="edge7" class="edge"><title>Node1&#45;&gt;Node8</title>
<path fill="none" stroke="midnightblue" d="M263.075,-115.682C319.654,-103.78 394.713,-87.9908 443.786,-77.668"/>
<polygon fill="midnightblue" stroke="midnightblue" points="444.782,-81.0351 453.847,-75.5515 443.341,-74.1851 444.782,-81.0351"/>
</g>
<!-- Node8&#45;&gt;Node3 -->
<g id="edge8" class="edge"><title>Node8&#45;&gt;Node3</title>
<path fill="none" stroke="midnightblue" d="M455.204,-56.4435C405.764,-45.6785 321.913,-27.4206 277.02,-17.6454"/>
<polygon fill="midnightblue" stroke="midnightblue" points="277.527,-14.174 267.012,-15.4662 276.038,-21.0138 277.527,-14.174"/>
</g>
<!-- Node9 -->
<g id="node9" class="node"><title>Node9</title>
<polygon fill="none" stroke="#bfbfbf" points="468.5,-0.5 468.5,-19.5 520.5,-19.5 520.5,-0.5 468.5,-0.5"/>
<text text-anchor="middle" x="494.5" y="-7.5" font-family="Helvetica,sans-Serif" font-size="10.00">memory</text>
</g>
<!-- Node8&#45;&gt;Node9 -->
<g id="edge9" class="edge"><title>Node8&#45;&gt;Node9</title>
<path fill="none" stroke="midnightblue" d="M494.5,-56.083C494.5,-49.0059 494.5,-38.8611 494.5,-29.9865"/>
<polygon fill="midnightblue" stroke="midnightblue" points="498,-29.751 494.5,-19.7511 491,-29.7511 498,-29.751"/>
</g>
</g>
</svg>
