<?xml version="1.0" encoding="UTF-8" standalone="no"?>
<!DOCTYPE svg PUBLIC "-//W3C//DTD SVG 1.1//EN"
 "http://www.w3.org/Graphics/SVG/1.1/DTD/svg11.dtd">
<!-- Generated by graphviz version 2.38.0 (20140413.2041)
 -->
<!-- Title: /home/alaurenzi/Code/advr&#45;superbuild/external/MatLogger2/src/matlogger2_backend.cpp Pages: 1 -->
<svg width="560pt" height="173pt"
 viewBox="0.00 0.00 560.00 173.00" xmlns="http://www.w3.org/2000/svg" xmlns:xlink="http://www.w3.org/1999/xlink">
<g id="graph0" class="graph" transform="scale(1 1) rotate(0) translate(4 169)">
<title>/home/alaurenzi/Code/advr&#45;superbuild/external/MatLogger2/src/matlogger2_backend.cpp</title>
<!-- Node1 -->
<g id="node1" class="node"><title>Node1</title>
<polygon fill="#bfbfbf" stroke="black" points="116.5,-112.5 116.5,-164.5 254.5,-164.5 254.5,-112.5 116.5,-112.5"/>
<text text-anchor="start" x="124.5" y="-152.5" font-family="Helvetica,sans-Serif" font-size="10.00">/home/alaurenzi/Code</text>
<text text-anchor="start" x="124.5" y="-141.5" font-family="Helvetica,sans-Serif" font-size="10.00">/advr&#45;superbuild/external</text>
<text text-anchor="start" x="124.5" y="-130.5" font-family="Helvetica,sans-Serif" font-size="10.00">/MatLogger2/src/matlogger2</text>
<text text-anchor="middle" x="185.5" y="-119.5" font-family="Helvetica,sans-Serif" font-size="10.00">_backend.cpp</text>
</g>
<!-- Node2 -->
<g id="node2" class="node"><title>Node2</title>
<polygon fill="none" stroke="#bfbfbf" points="0,-56.5 0,-75.5 35,-75.5 35,-56.5 0,-56.5"/>
<text text-anchor="middle" x="17.5" y="-63.5" font-family="Helvetica,sans-Serif" font-size="10.00">map</text>
</g>
<!-- Node1&#45;&gt;Node2 -->
<g id="edge1" class="edge"><title>Node1&#45;&gt;Node2</title>
<path fill="none" stroke="midnightblue" d="M125.796,-112.446C97.989,-100.777 66.2948,-87.4764 44.4119,-78.2934"/>
<polygon fill="midnightblue" stroke="midnightblue" points="45.6726,-75.0268 35.0972,-74.3845 42.9638,-81.4815 45.6726,-75.0268"/>
</g>
<!-- Node3 -->
<g id="node3" class="node"><title>Node3</title>
<polygon fill="none" stroke="#bfbfbf" points="226,-0.5 226,-19.5 267,-19.5 267,-0.5 226,-0.5"/>
<text text-anchor="middle" x="246.5" y="-7.5" font-family="Helvetica,sans-Serif" font-size="10.00">string</text>
</g>
<!-- Node1&#45;&gt;Node3 -->
<g id="edge2" class="edge"><title>Node1&#45;&gt;Node3</title>
<path fill="none" stroke="midnightblue" d="M117.212,-112.423C88.6059,-97.9881 65.4926,-78.3026 82.5,-56 98.5918,-34.898 172.952,-21.2426 215.813,-14.9811"/>
<polygon fill="midnightblue" stroke="midnightblue" points="216.563,-18.41 225.976,-13.5484 215.585,-11.4786 216.563,-18.41"/>
</g>
<!-- Node4 -->
<g id="node4" class="node"><title>Node4</title>
<polygon fill="none" stroke="#bfbfbf" points="91.5,-56.5 91.5,-75.5 145.5,-75.5 145.5,-56.5 91.5,-56.5"/>
<text text-anchor="middle" x="118.5" y="-63.5" font-family="Helvetica,sans-Serif" font-size="10.00">iostream</text>
</g>
<!-- Node1&#45;&gt;Node4 -->
<g id="edge3" class="edge"><title>Node1&#45;&gt;Node4</title>
<path fill="none" stroke="midnightblue" d="M161.69,-112.446C152.359,-102.628 141.932,-91.6559 133.66,-82.9524"/>
<polygon fill="midnightblue" stroke="midnightblue" points="136.19,-80.5331 126.764,-75.6955 131.116,-85.3553 136.19,-80.5331"/>
</g>
<!-- Node5 -->
<g id="node5" class="node"><title>Node5</title>
<polygon fill="none" stroke="#bfbfbf" points="164,-56.5 164,-75.5 207,-75.5 207,-56.5 164,-56.5"/>
<text text-anchor="middle" x="185.5" y="-63.5" font-family="Helvetica,sans-Serif" font-size="10.00">cstdio</text>
</g>
<!-- Node1&#45;&gt;Node5 -->
<g id="edge4" class="edge"><title>Node1&#45;&gt;Node5</title>
<path fill="none" stroke="midnightblue" d="M185.5,-112.446C185.5,-103.73 185.5,-94.1045 185.5,-85.9641"/>
<polygon fill="midnightblue" stroke="midnightblue" points="189,-85.6954 185.5,-75.6955 182,-85.6955 189,-85.6954"/>
</g>
<!-- Node6 -->
<g id="node6" class="node"><title>Node6</title>
<polygon fill="none" stroke="#bfbfbf" points="225.5,-56.5 225.5,-75.5 271.5,-75.5 271.5,-56.5 225.5,-56.5"/>
<text text-anchor="middle" x="248.5" y="-63.5" font-family="Helvetica,sans-Serif" font-size="10.00">dlfcn.h</text>
</g>
<!-- Node1&#45;&gt;Node6 -->
<g id="edge5" class="edge"><title>Node1&#45;&gt;Node6</title>
<path fill="none" stroke="midnightblue" d="M207.889,-112.446C216.573,-102.728 226.267,-91.8797 234.006,-83.2196"/>
<polygon fill="midnightblue" stroke="midnightblue" points="236.676,-85.4842 240.73,-75.6955 231.456,-80.8199 236.676,-85.4842"/>
</g>
<!-- Node7 -->
<g id="node7" class="node"><title>Node7</title>
<polygon fill="none" stroke="#bfbfbf" points="290,-56.5 290,-75.5 419,-75.5 419,-56.5 290,-56.5"/>
<text text-anchor="middle" x="354.5" y="-63.5" font-family="Helvetica,sans-Serif" font-size="10.00">boost/algorithm/string.hpp</text>
</g>
<!-- Node1&#45;&gt;Node7 -->
<g id="edge6" class="edge"><title>Node1&#45;&gt;Node7</title>
<path fill="none" stroke="midnightblue" d="M245.559,-112.446C272.38,-101.257 302.796,-88.5689 324.659,-79.4483"/>
<polygon fill="midnightblue" stroke="midnightblue" points="326.178,-82.6073 334.059,-75.527 323.483,-76.1469 326.178,-82.6073"/>
</g>
<!-- Node8 -->
<g id="node8" class="node"><title>Node8</title>
<g id="a_node8"><a xlink:href="matlogger2__backend_8h.html" target="_top" xlink:title="matlogger2_backend.h">
<polygon fill="none" stroke="black" points="437,-56.5 437,-75.5 552,-75.5 552,-56.5 437,-56.5"/>
<text text-anchor="middle" x="494.5" y="-63.5" font-family="Helvetica,sans-Serif" font-size="10.00">matlogger2_backend.h</text>
</a>
</g>
</g>
<!-- Node1&#45;&gt;Node8 -->
<g id="edge7" class="edge"><title>Node1&#45;&gt;Node8</title>
<path fill="none" stroke="midnightblue" d="M254.846,-121.678C313.398,-108.319 395.68,-89.5464 447.003,-77.8367"/>
<polygon fill="midnightblue" stroke="midnightblue" points="447.868,-81.2294 456.839,-75.5926 446.311,-74.4048 447.868,-81.2294"/>
</g>
<!-- Node8&#45;&gt;Node3 -->
<g id="edge8" class="edge"><title>Node8&#45;&gt;Node3</title>
<path fill="none" stroke="midnightblue" d="M455.204,-56.4435C405.764,-45.6785 321.913,-27.4206 277.02,-17.6454"/>
<polygon fill="midnightblue" stroke="midnightblue" points="277.527,-14.174 267.012,-15.4662 276.038,-21.0138 277.527,-14.174"/>
</g>
<!-- Node9 -->
<g id="node9" class="node"><title>Node9</title>
<polygon fill="none" stroke="#bfbfbf" points="468.5,-0.5 468.5,-19.5 520.5,-19.5 520.5,-0.5 468.5,-0.5"/>
<text text-anchor="middle" x="494.5" y="-7.5" font-family="Helvetica,sans-Serif" font-size="10.00">memory</text>
</g>
<!-- Node8&#45;&gt;Node9 -->
<g id="edge9" class="edge"><title>Node8&#45;&gt;Node9</title>
<path fill="none" stroke="midnightblue" d="M494.5,-56.083C494.5,-49.0059 494.5,-38.8611 494.5,-29.9865"/>
<polygon fill="midnightblue" stroke="midnightblue" points="498,-29.751 494.5,-19.7511 491,-29.7511 498,-29.751"/>
</g>
</g>
</svg>
