<?xml version="1.0" encoding="UTF-8" standalone="no"?>
<!DOCTYPE svg PUBLIC "-//W3C//DTD SVG 1.1//EN"
 "http://www.w3.org/Graphics/SVG/1.1/DTD/svg11.dtd">
<!-- Generated by graphviz version 2.38.0 (20140413.2041)
 -->
<!-- Title: /home/alaurenzi/Code/advr&#45;superbuild/external/MatLogger2/include/matlogger2/matlogger2.h Pages: 1 -->
<svg width="332pt" height="184pt"
 viewBox="0.00 0.00 332.00 184.00" xmlns="http://www.w3.org/2000/svg" xmlns:xlink="http://www.w3.org/1999/xlink">
<g id="graph0" class="graph" transform="scale(1 1) rotate(0) translate(4 180)">
<title>/home/alaurenzi/Code/advr&#45;superbuild/external/MatLogger2/include/matlogger2/matlogger2.h</title>
<!-- Node1 -->
<g id="node1" class="node"><title>Node1</title>
<polygon fill="#bfbfbf" stroke="black" points="56,-123.5 56,-175.5 211,-175.5 211,-123.5 56,-123.5"/>
<text text-anchor="start" x="64" y="-163.5" font-family="Helvetica,sans-Serif" font-size="10.00">/home/alaurenzi/Code</text>
<text text-anchor="start" x="64" y="-152.5" font-family="Helvetica,sans-Serif" font-size="10.00">/advr&#45;superbuild/external</text>
<text text-anchor="start" x="64" y="-141.5" font-family="Helvetica,sans-Serif" font-size="10.00">/MatLogger2/include/matlogger2</text>
<text text-anchor="middle" x="133.5" y="-130.5" font-family="Helvetica,sans-Serif" font-size="10.00">/matlogger2.h</text>
</g>
<!-- Node2 -->
<g id="node2" class="node"><title>Node2</title>
<polygon fill="none" stroke="#bfbfbf" points="0,-0.5 0,-19.5 41,-19.5 41,-0.5 0,-0.5"/>
<text text-anchor="middle" x="20.5" y="-7.5" font-family="Helvetica,sans-Serif" font-size="10.00">string</text>
</g>
<!-- Node1&#45;&gt;Node2 -->
<g id="edge1" class="edge"><title>Node1&#45;&gt;Node2</title>
<path fill="none" stroke="midnightblue" d="M102.371,-123.237C90.4144,-112.718 77.1047,-99.9482 66.5,-87 51.5894,-68.7945 38.1121,-45.2931 29.6562,-29.2756"/>
<polygon fill="midnightblue" stroke="midnightblue" points="32.5498,-27.2497 24.86,-19.9615 26.3264,-30.4544 32.5498,-27.2497"/>
</g>
<!-- Node3 -->
<g id="node3" class="node"><title>Node3</title>
<polygon fill="none" stroke="#bfbfbf" points="68.5,-0.5 68.5,-19.5 120.5,-19.5 120.5,-0.5 68.5,-0.5"/>
<text text-anchor="middle" x="94.5" y="-7.5" font-family="Helvetica,sans-Serif" font-size="10.00">memory</text>
</g>
<!-- Node1&#45;&gt;Node3 -->
<g id="edge2" class="edge"><title>Node1&#45;&gt;Node3</title>
<path fill="none" stroke="midnightblue" d="M100.078,-123.213C89.5085,-113.223 79.1232,-100.816 73.5,-87 65.5515,-67.4704 74.7705,-43.9283 83.3757,-28.2724"/>
<polygon fill="midnightblue" stroke="midnightblue" points="86.3994,-30.0353 88.4954,-19.6498 80.3804,-26.4615 86.3994,-30.0353"/>
</g>
<!-- Node4 -->
<g id="node4" class="node"><title>Node4</title>
<polygon fill="none" stroke="#bfbfbf" points="241,-62 241,-81 324,-81 324,-62 241,-62"/>
<text text-anchor="middle" x="282.5" y="-69" font-family="Helvetica,sans-Serif" font-size="10.00">unordered_map</text>
</g>
<!-- Node1&#45;&gt;Node4 -->
<g id="edge3" class="edge"><title>Node1&#45;&gt;Node4</title>
<path fill="none" stroke="midnightblue" d="M182.701,-123.404C207.435,-110.788 236.391,-96.0189 256.723,-85.6482"/>
<polygon fill="midnightblue" stroke="midnightblue" points="258.365,-88.7395 265.683,-81.0779 255.184,-82.5039 258.365,-88.7395"/>
</g>
<!-- Node5 -->
<g id="node5" class="node"><title>Node5</title>
<polygon fill="none" stroke="#bfbfbf" points="155.5,-0.5 155.5,-19.5 259.5,-19.5 259.5,-0.5 155.5,-0.5"/>
<text text-anchor="middle" x="207.5" y="-7.5" font-family="Helvetica,sans-Serif" font-size="10.00">eigen3/Eigen/Dense</text>
</g>
<!-- Node1&#45;&gt;Node5 -->
<g id="edge4" class="edge"><title>Node1&#45;&gt;Node5</title>
<path fill="none" stroke="midnightblue" d="M164.61,-123.477C175.346,-113.266 186.438,-100.645 193.5,-87 202.73,-69.1665 205.953,-46.2074 207.038,-30.212"/>
<polygon fill="midnightblue" stroke="midnightblue" points="210.546,-30.1177 207.505,-19.9685 203.553,-29.7986 210.546,-30.1177"/>
</g>
<!-- Node6 -->
<g id="node6" class="node"><title>Node6</title>
<g id="a_node6"><a xlink:href="var__buffer_8h.html" target="_top" xlink:title="matlogger2/utils/var\l_buffer.h">
<polygon fill="none" stroke="black" points="82.5,-56.5 82.5,-86.5 184.5,-86.5 184.5,-56.5 82.5,-56.5"/>
<text text-anchor="start" x="90.5" y="-74.5" font-family="Helvetica,sans-Serif" font-size="10.00">matlogger2/utils/var</text>
<text text-anchor="middle" x="133.5" y="-63.5" font-family="Helvetica,sans-Serif" font-size="10.00">_buffer.h</text>
</a>
</g>
</g>
<!-- Node1&#45;&gt;Node6 -->
<g id="edge5" class="edge"><title>Node1&#45;&gt;Node6</title>
<path fill="none" stroke="midnightblue" d="M133.5,-123.193C133.5,-114.786 133.5,-105.443 133.5,-97.0914"/>
<polygon fill="midnightblue" stroke="midnightblue" points="137,-96.8452 133.5,-86.8453 130,-96.8453 137,-96.8452"/>
</g>
<!-- Node6&#45;&gt;Node2 -->
<g id="edge6" class="edge"><title>Node6&#45;&gt;Node2</title>
<path fill="none" stroke="midnightblue" d="M106.721,-56.3993C88.4382,-46.7728 64.3519,-34.0902 46.2852,-24.5772"/>
<polygon fill="midnightblue" stroke="midnightblue" points="47.4215,-21.22 36.9425,-19.6578 44.1602,-27.4138 47.4215,-21.22"/>
</g>
<!-- Node6&#45;&gt;Node3 -->
<g id="edge7" class="edge"><title>Node6&#45;&gt;Node3</title>
<path fill="none" stroke="midnightblue" d="M124.258,-56.3993C118.707,-47.9315 111.607,-37.0991 105.734,-28.1393"/>
<polygon fill="midnightblue" stroke="midnightblue" points="108.584,-26.1026 100.175,-19.6578 102.73,-29.94 108.584,-26.1026"/>
</g>
<!-- Node6&#45;&gt;Node5 -->
<g id="edge8" class="edge"><title>Node6&#45;&gt;Node5</title>
<path fill="none" stroke="midnightblue" d="M151.037,-56.3993C162.344,-47.3076 177.042,-35.4899 188.607,-26.1909"/>
<polygon fill="midnightblue" stroke="midnightblue" points="191.132,-28.6517 196.732,-19.6578 186.746,-23.1964 191.132,-28.6517"/>
</g>
</g>
</svg>
