<?xml version="1.0" encoding="UTF-8" standalone="no"?>
<!DOCTYPE svg PUBLIC "-//W3C//DTD SVG 1.1//EN"
 "http://www.w3.org/Graphics/SVG/1.1/DTD/svg11.dtd">
<!-- Generated by graphviz version 2.38.0 (20140413.2041)
 -->
<!-- Title: /home/alaurenzi/Code/advr&#45;superbuild/external/MatLogger2/src/boost/spsc_queue_logger.hpp Pages: 1 -->
<svg width="1486pt" height="128pt"
 viewBox="0.00 0.00 1486.00 128.00" xmlns="http://www.w3.org/2000/svg" xmlns:xlink="http://www.w3.org/1999/xlink">
<g id="graph0" class="graph" transform="scale(1 1) rotate(0) translate(4 124)">
<title>/home/alaurenzi/Code/advr&#45;superbuild/external/MatLogger2/src/boost/spsc_queue_logger.hpp</title>
<!-- Node1 -->
<g id="node1" class="node"><title>Node1</title>
<polygon fill="#bfbfbf" stroke="black" points="622,-67.5 622,-119.5 760,-119.5 760,-67.5 622,-67.5"/>
<text text-anchor="start" x="630" y="-107.5" font-family="Helvetica,sans-Serif" font-size="10.00">/home/alaurenzi/Code</text>
<text text-anchor="start" x="630" y="-96.5" font-family="Helvetica,sans-Serif" font-size="10.00">/advr&#45;superbuild/external</text>
<text text-anchor="start" x="630" y="-85.5" font-family="Helvetica,sans-Serif" font-size="10.00">/MatLogger2/src/boost/spsc</text>
<text text-anchor="middle" x="691" y="-74.5" font-family="Helvetica,sans-Serif" font-size="10.00">_queue_logger.hpp</text>
</g>
<!-- Node2 -->
<g id="node2" class="node"><title>Node2</title>
<polygon fill="none" stroke="#bfbfbf" points="0,-6 0,-25 56,-25 56,-6 0,-6"/>
<text text-anchor="middle" x="28" y="-13" font-family="Helvetica,sans-Serif" font-size="10.00">algorithm</text>
</g>
<!-- Node1&#45;&gt;Node2 -->
<g id="edge1" class="edge"><title>Node1&#45;&gt;Node2</title>
<path fill="none" stroke="midnightblue" d="M621.892,-91.8892C505.414,-89.4947 263.299,-78.6269 65,-31 62.1699,-30.3203 59.2677,-29.4708 56.3941,-28.526"/>
<polygon fill="midnightblue" stroke="midnightblue" points="57.4742,-25.1944 46.8803,-25.0545 55.0747,-31.7703 57.4742,-25.1944"/>
</g>
<!-- Node3 -->
<g id="node3" class="node"><title>Node3</title>
<polygon fill="none" stroke="#bfbfbf" points="74,-6 74,-25 126,-25 126,-6 74,-6"/>
<text text-anchor="middle" x="100" y="-13" font-family="Helvetica,sans-Serif" font-size="10.00">memory</text>
</g>
<!-- Node1&#45;&gt;Node3 -->
<g id="edge2" class="edge"><title>Node1&#45;&gt;Node3</title>
<path fill="none" stroke="midnightblue" d="M621.836,-91.0936C515.565,-87.5441 306.428,-75.0399 135,-31 132.492,-30.3556 129.927,-29.5664 127.383,-28.6922"/>
<polygon fill="midnightblue" stroke="midnightblue" points="128.422,-25.3423 117.832,-25.0257 125.913,-31.8773 128.422,-25.3423"/>
</g>
<!-- Node4 -->
<g id="node4" class="node"><title>Node4</title>
<polygon fill="none" stroke="#bfbfbf" points="144.5,-6 144.5,-25 275.5,-25 275.5,-6 144.5,-6"/>
<text text-anchor="middle" x="210" y="-13" font-family="Helvetica,sans-Serif" font-size="10.00">boost/aligned_storage.hpp</text>
</g>
<!-- Node1&#45;&gt;Node4 -->
<g id="edge3" class="edge"><title>Node1&#45;&gt;Node4</title>
<path fill="none" stroke="midnightblue" d="M621.718,-82.9677C540.605,-71.5908 402.29,-51.5163 284,-31 276.817,-29.7542 269.257,-28.3642 261.825,-26.9518"/>
<polygon fill="midnightblue" stroke="midnightblue" points="262.297,-23.4785 251.816,-25.0233 260.973,-30.3521 262.297,-23.4785"/>
</g>
<!-- Node5 -->
<g id="node5" class="node"><title>Node5</title>
<polygon fill="none" stroke="#bfbfbf" points="293.5,-6 293.5,-25 382.5,-25 382.5,-6 293.5,-6"/>
<text text-anchor="middle" x="338" y="-13" font-family="Helvetica,sans-Serif" font-size="10.00">boost/assert.hpp</text>
</g>
<!-- Node1&#45;&gt;Node5 -->
<g id="edge4" class="edge"><title>Node1&#45;&gt;Node5</title>
<path fill="none" stroke="midnightblue" d="M621.909,-79.6564C560.923,-68.0055 469.728,-49.8181 391,-31 386.655,-29.9615 382.127,-28.8177 377.627,-27.642"/>
<polygon fill="midnightblue" stroke="midnightblue" points="378.469,-24.2442 367.904,-25.0454 376.662,-31.0072 378.469,-24.2442"/>
</g>
<!-- Node6 -->
<g id="node6" class="node"><title>Node6</title>
<polygon fill="none" stroke="#bfbfbf" points="400.5,-6 400.5,-25 519.5,-25 519.5,-6 400.5,-6"/>
<text text-anchor="middle" x="460" y="-13" font-family="Helvetica,sans-Serif" font-size="10.00">boost/static_assert.hpp</text>
</g>
<!-- Node1&#45;&gt;Node6 -->
<g id="edge5" class="edge"><title>Node1&#45;&gt;Node6</title>
<path fill="none" stroke="midnightblue" d="M621.692,-69.6975C580.262,-56.0668 529.338,-39.3126 495.842,-28.2921"/>
<polygon fill="midnightblue" stroke="midnightblue" points="496.629,-24.8665 486.036,-25.0658 494.441,-31.5158 496.629,-24.8665"/>
</g>
<!-- Node7 -->
<g id="node7" class="node"><title>Node7</title>
<polygon fill="none" stroke="#bfbfbf" points="538,-6 538,-25 624,-25 624,-6 538,-6"/>
<text text-anchor="middle" x="581" y="-13" font-family="Helvetica,sans-Serif" font-size="10.00">boost/utility.hpp</text>
</g>
<!-- Node1&#45;&gt;Node7 -->
<g id="edge6" class="edge"><title>Node1&#45;&gt;Node7</title>
<path fill="none" stroke="midnightblue" d="M654.677,-67.4041C637.161,-55.3019 616.776,-41.2183 601.895,-30.9366"/>
<polygon fill="midnightblue" stroke="midnightblue" points="603.632,-27.8827 593.415,-25.0779 599.653,-33.6418 603.632,-27.8827"/>
</g>
<!-- Node8 -->
<g id="node8" class="node"><title>Node8</title>
<polygon fill="none" stroke="#bfbfbf" points="642,-0.5 642,-30.5 740,-30.5 740,-0.5 642,-0.5"/>
<text text-anchor="start" x="650" y="-18.5" font-family="Helvetica,sans-Serif" font-size="10.00">boost/utility/enable</text>
<text text-anchor="middle" x="691" y="-7.5" font-family="Helvetica,sans-Serif" font-size="10.00">_if.hpp</text>
</g>
<!-- Node1&#45;&gt;Node8 -->
<g id="edge7" class="edge"><title>Node1&#45;&gt;Node8</title>
<path fill="none" stroke="midnightblue" d="M691,-67.1931C691,-58.7864 691,-49.4433 691,-41.0914"/>
<polygon fill="midnightblue" stroke="midnightblue" points="694.5,-40.8452 691,-30.8453 687.5,-40.8453 694.5,-40.8452"/>
</g>
<!-- Node9 -->
<g id="node9" class="node"><title>Node9</title>
<polygon fill="none" stroke="#bfbfbf" points="758.5,-0.5 758.5,-30.5 871.5,-30.5 871.5,-0.5 758.5,-0.5"/>
<text text-anchor="start" x="766.5" y="-18.5" font-family="Helvetica,sans-Serif" font-size="10.00">boost/type_traits/has</text>
<text text-anchor="middle" x="815" y="-7.5" font-family="Helvetica,sans-Serif" font-size="10.00">_trivial_destructor.hpp</text>
</g>
<!-- Node1&#45;&gt;Node9 -->
<g id="edge8" class="edge"><title>Node1&#45;&gt;Node9</title>
<path fill="none" stroke="midnightblue" d="M731.946,-67.4041C748.576,-57.2118 767.498,-45.614 783.077,-36.0656"/>
<polygon fill="midnightblue" stroke="midnightblue" points="785.124,-38.9163 791.821,-30.7066 781.466,-32.9481 785.124,-38.9163"/>
</g>
<!-- Node10 -->
<g id="node10" class="node"><title>Node10</title>
<polygon fill="none" stroke="#bfbfbf" points="890,-0.5 890,-30.5 990,-30.5 990,-0.5 890,-0.5"/>
<text text-anchor="start" x="898" y="-18.5" font-family="Helvetica,sans-Serif" font-size="10.00">boost/type_traits/is</text>
<text text-anchor="middle" x="940" y="-7.5" font-family="Helvetica,sans-Serif" font-size="10.00">_convertible.hpp</text>
</g>
<!-- Node1&#45;&gt;Node10 -->
<g id="edge9" class="edge"><title>Node1&#45;&gt;Node10</title>
<path fill="none" stroke="midnightblue" d="M760.03,-71.4307C799.102,-59.5049 847.337,-44.7826 884.033,-33.5822"/>
<polygon fill="midnightblue" stroke="midnightblue" points="885.518,-36.7886 894.06,-30.5217 883.474,-30.0935 885.518,-36.7886"/>
</g>
<!-- Node11 -->
<g id="node11" class="node"><title>Node11</title>
<polygon fill="none" stroke="#bfbfbf" points="1008,-0.5 1008,-30.5 1112,-30.5 1112,-0.5 1008,-0.5"/>
<text text-anchor="start" x="1016" y="-18.5" font-family="Helvetica,sans-Serif" font-size="10.00">boost/lockfree/detail</text>
<text text-anchor="middle" x="1060" y="-7.5" font-family="Helvetica,sans-Serif" font-size="10.00">/atomic.hpp</text>
</g>
<!-- Node1&#45;&gt;Node11 -->
<g id="edge10" class="edge"><title>Node1&#45;&gt;Node11</title>
<path fill="none" stroke="midnightblue" d="M760.263,-79.4146C820.526,-67.8591 910.448,-50.2079 997.956,-31.1879"/>
<polygon fill="midnightblue" stroke="midnightblue" points="998.761,-34.5946 1007.79,-29.0433 997.269,-27.7555 998.761,-34.5946"/>
</g>
<!-- Node12 -->
<g id="node12" class="node"><title>Node12</title>
<polygon fill="none" stroke="#bfbfbf" points="1130,-0.5 1130,-30.5 1234,-30.5 1234,-0.5 1130,-0.5"/>
<text text-anchor="start" x="1138" y="-18.5" font-family="Helvetica,sans-Serif" font-size="10.00">boost/lockfree/detail</text>
<text text-anchor="middle" x="1182" y="-7.5" font-family="Helvetica,sans-Serif" font-size="10.00">/copy_payload.hpp</text>
</g>
<!-- Node1&#45;&gt;Node12 -->
<g id="edge11" class="edge"><title>Node1&#45;&gt;Node12</title>
<path fill="none" stroke="midnightblue" d="M760.209,-84.5766C843.367,-74.6137 987.256,-55.9686 1119.89,-31.1113"/>
<polygon fill="midnightblue" stroke="midnightblue" points="1120.65,-34.5299 1129.82,-29.2335 1119.35,-27.6516 1120.65,-34.5299"/>
</g>
<!-- Node13 -->
<g id="node13" class="node"><title>Node13</title>
<polygon fill="none" stroke="#bfbfbf" points="1252,-0.5 1252,-30.5 1356,-30.5 1356,-0.5 1252,-0.5"/>
<text text-anchor="start" x="1260" y="-18.5" font-family="Helvetica,sans-Serif" font-size="10.00">boost/lockfree/detail</text>
<text text-anchor="middle" x="1304" y="-7.5" font-family="Helvetica,sans-Serif" font-size="10.00">/parameter.hpp</text>
</g>
<!-- Node1&#45;&gt;Node13 -->
<g id="edge12" class="edge"><title>Node1&#45;&gt;Node13</title>
<path fill="none" stroke="midnightblue" d="M760.229,-87.5238C863.228,-79.5157 1062.99,-61.6612 1241.73,-31.089"/>
<polygon fill="midnightblue" stroke="midnightblue" points="1242.59,-34.493 1251.84,-29.3415 1241.39,-27.5952 1242.59,-34.493"/>
</g>
<!-- Node14 -->
<g id="node14" class="node"><title>Node14</title>
<polygon fill="none" stroke="#bfbfbf" points="1374,-0.5 1374,-30.5 1478,-30.5 1478,-0.5 1374,-0.5"/>
<text text-anchor="start" x="1382" y="-18.5" font-family="Helvetica,sans-Serif" font-size="10.00">boost/lockfree/detail</text>
<text text-anchor="middle" x="1426" y="-7.5" font-family="Helvetica,sans-Serif" font-size="10.00">/prefix.hpp</text>
</g>
<!-- Node1&#45;&gt;Node14 -->
<g id="edge13" class="edge"><title>Node1&#45;&gt;Node14</title>
<path fill="none" stroke="midnightblue" d="M760.3,-89.4361C881.117,-83.3813 1138.17,-67.3385 1363.81,-31.0431"/>
<polygon fill="midnightblue" stroke="midnightblue" points="1364.55,-34.4699 1373.86,-29.4109 1363.42,-27.5606 1364.55,-34.4699"/>
</g>
</g>
</svg>
