<?xml version="1.0" encoding="UTF-8" standalone="no"?>
<!DOCTYPE svg PUBLIC "-//W3C//DTD SVG 1.1//EN"
 "http://www.w3.org/Graphics/SVG/1.1/DTD/svg11.dtd">
<!-- Generated by graphviz version 2.38.0 (20140413.2041)
 -->
<!-- Title: /home/alaurenzi/Code/advr&#45;superbuild/external/MatLogger2/src/thread.h Pages: 1 -->
<svg width="228pt" height="106pt"
 viewBox="0.00 0.00 228.00 106.00" xmlns="http://www.w3.org/2000/svg" xmlns:xlink="http://www.w3.org/1999/xlink">
<g id="graph0" class="graph" transform="scale(1 1) rotate(0) translate(4 102)">
<title>/home/alaurenzi/Code/advr&#45;superbuild/external/MatLogger2/src/thread.h</title>
<!-- Node1 -->
<g id="node1" class="node"><title>Node1</title>
<polygon fill="#bfbfbf" stroke="black" points="47.5,-56.5 47.5,-97.5 172.5,-97.5 172.5,-56.5 47.5,-56.5"/>
<text text-anchor="start" x="55.5" y="-85.5" font-family="Helvetica,sans-Serif" font-size="10.00">/home/alaurenzi/Code</text>
<text text-anchor="start" x="55.5" y="-74.5" font-family="Helvetica,sans-Serif" font-size="10.00">/advr&#45;superbuild/external</text>
<text text-anchor="middle" x="110" y="-63.5" font-family="Helvetica,sans-Serif" font-size="10.00">/MatLogger2/src/thread.h</text>
</g>
<!-- Node2 -->
<g id="node2" class="node"><title>Node2</title>
<polygon fill="none" stroke="#bfbfbf" points="0,-0.5 0,-19.5 44,-19.5 44,-0.5 0,-0.5"/>
<text text-anchor="middle" x="22" y="-7.5" font-family="Helvetica,sans-Serif" font-size="10.00">mutex</text>
</g>
<!-- Node1&#45;&gt;Node2 -->
<g id="edge1" class="edge"><title>Node1&#45;&gt;Node2</title>
<path fill="none" stroke="midnightblue" d="M83.5971,-56.4979C70.2348,-46.628 54.2801,-34.8432 41.9567,-25.7407"/>
<polygon fill="midnightblue" stroke="midnightblue" points="43.8373,-22.7786 33.7141,-19.6525 39.6783,-28.4092 43.8373,-22.7786"/>
</g>
<!-- Node3 -->
<g id="node3" class="node"><title>Node3</title>
<polygon fill="none" stroke="#bfbfbf" points="62.5,-0.5 62.5,-19.5 157.5,-19.5 157.5,-0.5 62.5,-0.5"/>
<text text-anchor="middle" x="110" y="-7.5" font-family="Helvetica,sans-Serif" font-size="10.00">condition_variable</text>
</g>
<!-- Node1&#45;&gt;Node3 -->
<g id="edge2" class="edge"><title>Node1&#45;&gt;Node3</title>
<path fill="none" stroke="midnightblue" d="M110,-56.4979C110,-48.0653 110,-38.2351 110,-29.874"/>
<polygon fill="midnightblue" stroke="midnightblue" points="113.5,-29.6525 110,-19.6525 106.5,-29.6525 113.5,-29.6525"/>
</g>
<!-- Node4 -->
<g id="node4" class="node"><title>Node4</title>
<polygon fill="none" stroke="#bfbfbf" points="176,-0.5 176,-19.5 220,-19.5 220,-0.5 176,-0.5"/>
<text text-anchor="middle" x="198" y="-7.5" font-family="Helvetica,sans-Serif" font-size="10.00">thread</text>
</g>
<!-- Node1&#45;&gt;Node4 -->
<g id="edge3" class="edge"><title>Node1&#45;&gt;Node4</title>
<path fill="none" stroke="midnightblue" d="M136.403,-56.4979C149.765,-46.628 165.72,-34.8432 178.043,-25.7407"/>
<polygon fill="midnightblue" stroke="midnightblue" points="180.322,-28.4092 186.286,-19.6525 176.163,-22.7786 180.322,-28.4092"/>
</g>
</g>
</svg>
