<?xml version="1.0" encoding="UTF-8" standalone="no"?>
<!DOCTYPE svg PUBLIC "-//W3C//DTD SVG 1.1//EN"
 "http://www.w3.org/Graphics/SVG/1.1/DTD/svg11.dtd">
<!-- Generated by graphviz version 2.38.0 (20140413.2041)
 -->
<!-- Title: /home/alaurenzi/Code/advr&#45;superbuild/external/MatLogger2/src/thread.h Pages: 1 -->
<svg width="354pt" height="128pt"
 viewBox="0.00 0.00 353.50 128.00" xmlns="http://www.w3.org/2000/svg" xmlns:xlink="http://www.w3.org/1999/xlink">
<g id="graph0" class="graph" transform="scale(1 1) rotate(0) translate(4 124)">
<title>/home/alaurenzi/Code/advr&#45;superbuild/external/MatLogger2/src/thread.h</title>
<!-- Node1 -->
<g id="node1" class="node"><title>Node1</title>
<polygon fill="#bfbfbf" stroke="black" points="113.5,-78.5 113.5,-119.5 238.5,-119.5 238.5,-78.5 113.5,-78.5"/>
<text text-anchor="start" x="121.5" y="-107.5" font-family="Helvetica,sans-Serif" font-size="10.00">/home/alaurenzi/Code</text>
<text text-anchor="start" x="121.5" y="-96.5" font-family="Helvetica,sans-Serif" font-size="10.00">/advr&#45;superbuild/external</text>
<text text-anchor="middle" x="176" y="-85.5" font-family="Helvetica,sans-Serif" font-size="10.00">/MatLogger2/src/thread.h</text>
</g>
<!-- Node2 -->
<g id="node2" class="node"><title>Node2</title>
<g id="a_node2"><a xlink:href="mat__appender_8cpp.html" target="_top" xlink:title="/home/alaurenzi/Code\l/advr&#45;superbuild/external\l/MatLogger2/src/mat_appender.cpp">
<polygon fill="none" stroke="black" points="0,-0.5 0,-41.5 170,-41.5 170,-0.5 0,-0.5"/>
<text text-anchor="start" x="8" y="-29.5" font-family="Helvetica,sans-Serif" font-size="10.00">/home/alaurenzi/Code</text>
<text text-anchor="start" x="8" y="-18.5" font-family="Helvetica,sans-Serif" font-size="10.00">/advr&#45;superbuild/external</text>
<text text-anchor="middle" x="85" y="-7.5" font-family="Helvetica,sans-Serif" font-size="10.00">/MatLogger2/src/mat_appender.cpp</text>
</a>
</g>
</g>
<!-- Node1&#45;&gt;Node2 -->
<g id="edge1" class="edge"><title>Node1&#45;&gt;Node2</title>
<path fill="none" stroke="midnightblue" d="M144.603,-71.7785C132.707,-61.8432 119.384,-50.7159 108.355,-41.5056"/>
<polygon fill="midnightblue" stroke="midnightblue" points="142.646,-74.7043 152.565,-78.4281 147.133,-69.3316 142.646,-74.7043"/>
</g>
<!-- Node3 -->
<g id="node3" class="node"><title>Node3</title>
<g id="a_node3"><a xlink:href="matlogger2_8cpp.html" target="_top" xlink:title="/home/alaurenzi/Code\l/advr&#45;superbuild/external\l/MatLogger2/src/matlogger2.cpp">
<polygon fill="none" stroke="black" points="188.5,-0.5 188.5,-41.5 345.5,-41.5 345.5,-0.5 188.5,-0.5"/>
<text text-anchor="start" x="196.5" y="-29.5" font-family="Helvetica,sans-Serif" font-size="10.00">/home/alaurenzi/Code</text>
<text text-anchor="start" x="196.5" y="-18.5" font-family="Helvetica,sans-Serif" font-size="10.00">/advr&#45;superbuild/external</text>
<text text-anchor="middle" x="267" y="-7.5" font-family="Helvetica,sans-Serif" font-size="10.00">/MatLogger2/src/matlogger2.cpp</text>
</a>
</g>
</g>
<!-- Node1&#45;&gt;Node3 -->
<g id="edge2" class="edge"><title>Node1&#45;&gt;Node3</title>
<path fill="none" stroke="midnightblue" d="M207.397,-71.7785C219.293,-61.8432 232.616,-50.7159 243.645,-41.5056"/>
<polygon fill="midnightblue" stroke="midnightblue" points="204.867,-69.3316 199.435,-78.4281 209.354,-74.7043 204.867,-69.3316"/>
</g>
</g>
</svg>
