<?xml version="1.0" encoding="UTF-8" standalone="no"?>
<!DOCTYPE svg PUBLIC "-//W3C//DTD SVG 1.1//EN"
 "http://www.w3.org/Graphics/SVG/1.1/DTD/svg11.dtd">
<!-- Generated by graphviz version 2.38.0 (20140413.2041)
 -->
<!-- Title: /home/alaurenzi/Code/advr&#45;superbuild/external/MatLogger2/src/var_buffer.cpp Pages: 1 -->
<svg width="1668pt" height="184pt"
 viewBox="0.00 0.00 1667.50 184.00" xmlns="http://www.w3.org/2000/svg" xmlns:xlink="http://www.w3.org/1999/xlink">
<g id="graph0" class="graph" transform="scale(1 1) rotate(0) translate(4 180)">
<title>/home/alaurenzi/Code/advr&#45;superbuild/external/MatLogger2/src/var_buffer.cpp</title>
<!-- Node1 -->
<g id="node1" class="node"><title>Node1</title>
<polygon fill="#bfbfbf" stroke="black" points="408.5,-134.5 408.5,-175.5 560.5,-175.5 560.5,-134.5 408.5,-134.5"/>
<text text-anchor="start" x="416.5" y="-163.5" font-family="Helvetica,sans-Serif" font-size="10.00">/home/alaurenzi/Code</text>
<text text-anchor="start" x="416.5" y="-152.5" font-family="Helvetica,sans-Serif" font-size="10.00">/advr&#45;superbuild/external</text>
<text text-anchor="middle" x="484.5" y="-141.5" font-family="Helvetica,sans-Serif" font-size="10.00">/MatLogger2/src/var_buffer.cpp</text>
</g>
<!-- Node2 -->
<g id="node2" class="node"><title>Node2</title>
<g id="a_node2"><a xlink:href="var__buffer_8h.html" target="_top" xlink:title="matlogger2/utils/var\l_buffer.h">
<polygon fill="none" stroke="black" points="108.5,-67.5 108.5,-97.5 210.5,-97.5 210.5,-67.5 108.5,-67.5"/>
<text text-anchor="start" x="116.5" y="-85.5" font-family="Helvetica,sans-Serif" font-size="10.00">matlogger2/utils/var</text>
<text text-anchor="middle" x="159.5" y="-74.5" font-family="Helvetica,sans-Serif" font-size="10.00">_buffer.h</text>
</a>
</g>
</g>
<!-- Node1&#45;&gt;Node2 -->
<g id="edge1" class="edge"><title>Node1&#45;&gt;Node2</title>
<path fill="none" stroke="midnightblue" d="M408.302,-137.471C351.194,-125.083 274.054,-108.349 220.883,-96.8154"/>
<polygon fill="midnightblue" stroke="midnightblue" points="221.428,-93.3522 210.913,-94.6527 219.944,-100.193 221.428,-93.3522"/>
</g>
<!-- Node6 -->
<g id="node6" class="node"><title>Node6</title>
<g id="a_node6"><a xlink:href="spsc__queue__logger_8hpp.html" target="_top" xlink:title="boost/spsc_queue_logger.hpp">
<polygon fill="none" stroke="black" points="744.5,-73 744.5,-92 890.5,-92 890.5,-73 744.5,-73"/>
<text text-anchor="middle" x="817.5" y="-80" font-family="Helvetica,sans-Serif" font-size="10.00">boost/spsc_queue_logger.hpp</text>
</a>
</g>
</g>
<!-- Node1&#45;&gt;Node6 -->
<g id="edge5" class="edge"><title>Node1&#45;&gt;Node6</title>
<path fill="none" stroke="midnightblue" d="M560.897,-137.826C624.346,-124.393 712.776,-105.671 767.516,-94.0823"/>
<polygon fill="midnightblue" stroke="midnightblue" points="768.273,-97.4996 777.331,-92.0042 766.823,-90.6514 768.273,-97.4996"/>
</g>
<!-- Node3 -->
<g id="node3" class="node"><title>Node3</title>
<polygon fill="none" stroke="#bfbfbf" points="0,-6 0,-25 41,-25 41,-6 0,-6"/>
<text text-anchor="middle" x="20.5" y="-13" font-family="Helvetica,sans-Serif" font-size="10.00">string</text>
</g>
<!-- Node2&#45;&gt;Node3 -->
<g id="edge2" class="edge"><title>Node2&#45;&gt;Node3</title>
<path fill="none" stroke="midnightblue" d="M128.898,-67.4842C107.016,-57.4228 76.8917,-43.4907 50.5,-31 49.5065,-30.5298 48.4953,-30.0495 47.4744,-29.5633"/>
<polygon fill="midnightblue" stroke="midnightblue" points="48.774,-26.3049 38.2439,-25.1355 45.7464,-32.6163 48.774,-26.3049"/>
</g>
<!-- Node4 -->
<g id="node4" class="node"><title>Node4</title>
<polygon fill="none" stroke="#bfbfbf" points="181.5,-6 181.5,-25 233.5,-25 233.5,-6 181.5,-6"/>
<text text-anchor="middle" x="207.5" y="-13" font-family="Helvetica,sans-Serif" font-size="10.00">memory</text>
</g>
<!-- Node2&#45;&gt;Node4 -->
<g id="edge3" class="edge"><title>Node2&#45;&gt;Node4</title>
<path fill="none" stroke="midnightblue" d="M169.915,-67.396C177.325,-57.3614 187.312,-43.8382 195.128,-33.2535"/>
<polygon fill="midnightblue" stroke="midnightblue" points="197.954,-35.3181 201.079,-25.1945 192.323,-31.1597 197.954,-35.3181"/>
</g>
<!-- Node5 -->
<g id="node5" class="node"><title>Node5</title>
<polygon fill="none" stroke="#bfbfbf" points="59.5,-6 59.5,-25 163.5,-25 163.5,-6 59.5,-6"/>
<text text-anchor="middle" x="111.5" y="-13" font-family="Helvetica,sans-Serif" font-size="10.00">eigen3/Eigen/Dense</text>
</g>
<!-- Node2&#45;&gt;Node5 -->
<g id="edge4" class="edge"><title>Node2&#45;&gt;Node5</title>
<path fill="none" stroke="midnightblue" d="M149.085,-67.396C141.675,-57.3614 131.688,-43.8382 123.872,-33.2535"/>
<polygon fill="midnightblue" stroke="midnightblue" points="126.677,-31.1597 117.921,-25.1945 121.046,-35.3181 126.677,-31.1597"/>
</g>
<!-- Node6&#45;&gt;Node4 -->
<g id="edge7" class="edge"><title>Node6&#45;&gt;Node4</title>
<path fill="none" stroke="midnightblue" d="M744.181,-82.1488C633.759,-81.5462 418.918,-74.2063 242.5,-31 239.985,-30.3839 237.415,-29.6144 234.867,-28.7531"/>
<polygon fill="midnightblue" stroke="midnightblue" points="235.902,-25.4019 225.311,-25.1074 233.407,-31.9421 235.902,-25.4019"/>
</g>
<!-- Node7 -->
<g id="node7" class="node"><title>Node7</title>
<polygon fill="none" stroke="#bfbfbf" points="251.5,-6 251.5,-25 307.5,-25 307.5,-6 251.5,-6"/>
<text text-anchor="middle" x="279.5" y="-13" font-family="Helvetica,sans-Serif" font-size="10.00">algorithm</text>
</g>
<!-- Node6&#45;&gt;Node7 -->
<g id="edge6" class="edge"><title>Node6&#45;&gt;Node7</title>
<path fill="none" stroke="midnightblue" d="M744.277,-80.3445C645.749,-77.3858 465.634,-67.0183 316.5,-31 313.671,-30.3167 310.769,-29.4648 307.896,-28.5185"/>
<polygon fill="midnightblue" stroke="midnightblue" points="308.976,-25.1871 298.383,-25.0448 306.576,-31.7625 308.976,-25.1871"/>
</g>
<!-- Node8 -->
<g id="node8" class="node"><title>Node8</title>
<polygon fill="none" stroke="#bfbfbf" points="326,-6 326,-25 457,-25 457,-6 326,-6"/>
<text text-anchor="middle" x="391.5" y="-13" font-family="Helvetica,sans-Serif" font-size="10.00">boost/aligned_storage.hpp</text>
</g>
<!-- Node6&#45;&gt;Node8 -->
<g id="edge8" class="edge"><title>Node6&#45;&gt;Node8</title>
<path fill="none" stroke="midnightblue" d="M750.843,-72.9672C679.936,-63.6497 564.562,-47.8002 465.5,-31 458.141,-29.7519 450.389,-28.3406 442.785,-26.9005"/>
<polygon fill="midnightblue" stroke="midnightblue" points="443.399,-23.4547 432.918,-25.0023 442.077,-30.3286 443.399,-23.4547"/>
</g>
<!-- Node9 -->
<g id="node9" class="node"><title>Node9</title>
<polygon fill="none" stroke="#bfbfbf" points="475,-6 475,-25 564,-25 564,-6 475,-6"/>
<text text-anchor="middle" x="519.5" y="-13" font-family="Helvetica,sans-Serif" font-size="10.00">boost/assert.hpp</text>
</g>
<!-- Node6&#45;&gt;Node9 -->
<g id="edge9" class="edge"><title>Node6&#45;&gt;Node9</title>
<path fill="none" stroke="midnightblue" d="M771.701,-72.9651C722.337,-63.5551 641.552,-47.5446 572.5,-31 568.156,-29.9591 563.627,-28.8139 559.128,-27.6373"/>
<polygon fill="midnightblue" stroke="midnightblue" points="559.97,-24.2396 549.405,-25.0397 558.163,-31.0024 559.97,-24.2396"/>
</g>
<!-- Node10 -->
<g id="node10" class="node"><title>Node10</title>
<polygon fill="none" stroke="#bfbfbf" points="582,-6 582,-25 701,-25 701,-6 582,-6"/>
<text text-anchor="middle" x="641.5" y="-13" font-family="Helvetica,sans-Serif" font-size="10.00">boost/static_assert.hpp</text>
</g>
<!-- Node6&#45;&gt;Node10 -->
<g id="edge10" class="edge"><title>Node6&#45;&gt;Node10</title>
<path fill="none" stroke="midnightblue" d="M794.129,-72.8685C763.405,-61.5219 709.259,-41.5246 674.404,-28.6522"/>
<polygon fill="midnightblue" stroke="midnightblue" points="675.281,-25.2449 664.688,-25.0637 672.856,-31.8114 675.281,-25.2449"/>
</g>
<!-- Node11 -->
<g id="node11" class="node"><title>Node11</title>
<polygon fill="none" stroke="#bfbfbf" points="719.5,-6 719.5,-25 805.5,-25 805.5,-6 719.5,-6"/>
<text text-anchor="middle" x="762.5" y="-13" font-family="Helvetica,sans-Serif" font-size="10.00">boost/utility.hpp</text>
</g>
<!-- Node6&#45;&gt;Node11 -->
<g id="edge11" class="edge"><title>Node6&#45;&gt;Node11</title>
<path fill="none" stroke="midnightblue" d="M810.082,-72.7338C801.506,-62.5979 787.199,-45.6899 776.509,-33.0556"/>
<polygon fill="midnightblue" stroke="midnightblue" points="778.931,-30.5004 769.8,-25.1273 773.588,-35.022 778.931,-30.5004"/>
</g>
<!-- Node12 -->
<g id="node12" class="node"><title>Node12</title>
<polygon fill="none" stroke="#bfbfbf" points="823.5,-0.5 823.5,-30.5 921.5,-30.5 921.5,-0.5 823.5,-0.5"/>
<text text-anchor="start" x="831.5" y="-18.5" font-family="Helvetica,sans-Serif" font-size="10.00">boost/utility/enable</text>
<text text-anchor="middle" x="872.5" y="-7.5" font-family="Helvetica,sans-Serif" font-size="10.00">_if.hpp</text>
</g>
<!-- Node6&#45;&gt;Node12 -->
<g id="edge12" class="edge"><title>Node6&#45;&gt;Node12</title>
<path fill="none" stroke="midnightblue" d="M824.918,-72.7338C832.351,-63.9493 844.088,-50.0783 854.044,-38.3111"/>
<polygon fill="midnightblue" stroke="midnightblue" points="856.791,-40.4837 860.579,-30.589 851.447,-35.9621 856.791,-40.4837"/>
</g>
<!-- Node13 -->
<g id="node13" class="node"><title>Node13</title>
<polygon fill="none" stroke="#bfbfbf" points="940,-0.5 940,-30.5 1053,-30.5 1053,-0.5 940,-0.5"/>
<text text-anchor="start" x="948" y="-18.5" font-family="Helvetica,sans-Serif" font-size="10.00">boost/type_traits/has</text>
<text text-anchor="middle" x="996.5" y="-7.5" font-family="Helvetica,sans-Serif" font-size="10.00">_trivial_destructor.hpp</text>
</g>
<!-- Node6&#45;&gt;Node13 -->
<g id="edge13" class="edge"><title>Node6&#45;&gt;Node13</title>
<path fill="none" stroke="midnightblue" d="M841.27,-72.8685C868.478,-62.9883 913.749,-46.5491 948.401,-33.9662"/>
<polygon fill="midnightblue" stroke="midnightblue" points="949.664,-37.2312 957.869,-30.5281 947.275,-30.6515 949.664,-37.2312"/>
</g>
<!-- Node14 -->
<g id="node14" class="node"><title>Node14</title>
<polygon fill="none" stroke="#bfbfbf" points="1071.5,-0.5 1071.5,-30.5 1171.5,-30.5 1171.5,-0.5 1071.5,-0.5"/>
<text text-anchor="start" x="1079.5" y="-18.5" font-family="Helvetica,sans-Serif" font-size="10.00">boost/type_traits/is</text>
<text text-anchor="middle" x="1121.5" y="-7.5" font-family="Helvetica,sans-Serif" font-size="10.00">_convertible.hpp</text>
</g>
<!-- Node6&#45;&gt;Node14 -->
<g id="edge14" class="edge"><title>Node6&#45;&gt;Node14</title>
<path fill="none" stroke="midnightblue" d="M861.422,-72.9655C908.425,-63.7169 985.417,-48.2372 1061.13,-31.264"/>
<polygon fill="midnightblue" stroke="midnightblue" points="1062.33,-34.5812 1071.32,-28.9692 1060.79,-27.7523 1062.33,-34.5812"/>
</g>
<!-- Node15 -->
<g id="node15" class="node"><title>Node15</title>
<polygon fill="none" stroke="#bfbfbf" points="1189.5,-0.5 1189.5,-30.5 1293.5,-30.5 1293.5,-0.5 1189.5,-0.5"/>
<text text-anchor="start" x="1197.5" y="-18.5" font-family="Helvetica,sans-Serif" font-size="10.00">boost/lockfree/detail</text>
<text text-anchor="middle" x="1241.5" y="-7.5" font-family="Helvetica,sans-Serif" font-size="10.00">/atomic.hpp</text>
</g>
<!-- Node6&#45;&gt;Node15 -->
<g id="edge15" class="edge"><title>Node6&#45;&gt;Node15</title>
<path fill="none" stroke="midnightblue" d="M890.836,-73.3746C962.167,-64.9992 1073.75,-50.6499 1179.45,-31.0935"/>
<polygon fill="midnightblue" stroke="midnightblue" points="1180.14,-34.5246 1189.33,-29.2468 1178.85,-27.6438 1180.14,-34.5246"/>
</g>
<!-- Node16 -->
<g id="node16" class="node"><title>Node16</title>
<polygon fill="none" stroke="#bfbfbf" points="1311.5,-0.5 1311.5,-30.5 1415.5,-30.5 1415.5,-0.5 1311.5,-0.5"/>
<text text-anchor="start" x="1319.5" y="-18.5" font-family="Helvetica,sans-Serif" font-size="10.00">boost/lockfree/detail</text>
<text text-anchor="middle" x="1363.5" y="-7.5" font-family="Helvetica,sans-Serif" font-size="10.00">/copy_payload.hpp</text>
</g>
<!-- Node6&#45;&gt;Node16 -->
<g id="edge16" class="edge"><title>Node6&#45;&gt;Node16</title>
<path fill="none" stroke="midnightblue" d="M890.619,-76.8528C983.86,-70.2641 1150.16,-56.2937 1301.41,-31.0459"/>
<polygon fill="midnightblue" stroke="midnightblue" points="1302.07,-34.4836 1311.35,-29.3665 1300.9,-27.5814 1302.07,-34.4836"/>
</g>
<!-- Node17 -->
<g id="node17" class="node"><title>Node17</title>
<polygon fill="none" stroke="#bfbfbf" points="1433.5,-0.5 1433.5,-30.5 1537.5,-30.5 1537.5,-0.5 1433.5,-0.5"/>
<text text-anchor="start" x="1441.5" y="-18.5" font-family="Helvetica,sans-Serif" font-size="10.00">boost/lockfree/detail</text>
<text text-anchor="middle" x="1485.5" y="-7.5" font-family="Helvetica,sans-Serif" font-size="10.00">/parameter.hpp</text>
</g>
<!-- Node6&#45;&gt;Node17 -->
<g id="edge17" class="edge"><title>Node6&#45;&gt;Node17</title>
<path fill="none" stroke="midnightblue" d="M890.807,-78.9593C1003.43,-74.2704 1225.86,-61.9042 1423.38,-31.0188"/>
<polygon fill="midnightblue" stroke="midnightblue" points="1424.03,-34.4593 1433.36,-29.4387 1422.94,-27.5454 1424.03,-34.4593"/>
</g>
<!-- Node18 -->
<g id="node18" class="node"><title>Node18</title>
<polygon fill="none" stroke="#bfbfbf" points="1555.5,-0.5 1555.5,-30.5 1659.5,-30.5 1659.5,-0.5 1555.5,-0.5"/>
<text text-anchor="start" x="1563.5" y="-18.5" font-family="Helvetica,sans-Serif" font-size="10.00">boost/lockfree/detail</text>
<text text-anchor="middle" x="1607.5" y="-7.5" font-family="Helvetica,sans-Serif" font-size="10.00">/prefix.hpp</text>
</g>
<!-- Node6&#45;&gt;Node18 -->
<g id="edge18" class="edge"><title>Node6&#45;&gt;Node18</title>
<path fill="none" stroke="midnightblue" d="M890.624,-80.3983C1020.64,-77.5726 1300.57,-67.5781 1545.21,-31.0225"/>
<polygon fill="midnightblue" stroke="midnightblue" points="1546,-34.4431 1555.37,-29.487 1544.96,-27.5219 1546,-34.4431"/>
</g>
</g>
</svg>
