<?xml version="1.0" encoding="UTF-8" standalone="no"?>
<!DOCTYPE svg PUBLIC "-//W3C//DTD SVG 1.1//EN"
 "http://www.w3.org/Graphics/SVG/1.1/DTD/svg11.dtd">
<!-- Generated by graphviz version 2.38.0 (20140413.2041)
 -->
<!-- Title: /home/alaurenzi/Code/advr&#45;superbuild/external/MatLogger2/include/matlogger2/utils/var_buffer.h Pages: 1 -->
<svg width="432pt" height="228pt"
 viewBox="0.00 0.00 432.00 228.00" xmlns="http://www.w3.org/2000/svg" xmlns:xlink="http://www.w3.org/1999/xlink">
<g id="graph0" class="graph" transform="scale(1 1) rotate(0) translate(4 224)">
<title>/home/alaurenzi/Code/advr&#45;superbuild/external/MatLogger2/include/matlogger2/utils/var_buffer.h</title>
<!-- Node1 -->
<g id="node1" class="node"><title>Node1</title>
<polygon fill="#bfbfbf" stroke="black" points="184.5,-167.5 184.5,-219.5 339.5,-219.5 339.5,-167.5 184.5,-167.5"/>
<text text-anchor="start" x="192.5" y="-207.5" font-family="Helvetica,sans-Serif" font-size="10.00">/home/alaurenzi/Code</text>
<text text-anchor="start" x="192.5" y="-196.5" font-family="Helvetica,sans-Serif" font-size="10.00">/advr&#45;superbuild/external</text>
<text text-anchor="start" x="192.5" y="-185.5" font-family="Helvetica,sans-Serif" font-size="10.00">/MatLogger2/include/matlogger2</text>
<text text-anchor="middle" x="262" y="-174.5" font-family="Helvetica,sans-Serif" font-size="10.00">/utils/var_buffer.h</text>
</g>
<!-- Node2 -->
<g id="node2" class="node"><title>Node2</title>
<g id="a_node2"><a xlink:href="matlogger2_8h.html" target="_top" xlink:title="/home/alaurenzi/Code\l/advr&#45;superbuild/external\l/MatLogger2/include/matlogger2\l/matlogger2.h">
<polygon fill="none" stroke="black" points="98.5,-78.5 98.5,-130.5 253.5,-130.5 253.5,-78.5 98.5,-78.5"/>
<text text-anchor="start" x="106.5" y="-118.5" font-family="Helvetica,sans-Serif" font-size="10.00">/home/alaurenzi/Code</text>
<text text-anchor="start" x="106.5" y="-107.5" font-family="Helvetica,sans-Serif" font-size="10.00">/advr&#45;superbuild/external</text>
<text text-anchor="start" x="106.5" y="-96.5" font-family="Helvetica,sans-Serif" font-size="10.00">/MatLogger2/include/matlogger2</text>
<text text-anchor="middle" x="176" y="-85.5" font-family="Helvetica,sans-Serif" font-size="10.00">/matlogger2.h</text>
</a>
</g>
</g>
<!-- Node1&#45;&gt;Node2 -->
<g id="edge1" class="edge"><title>Node1&#45;&gt;Node2</title>
<path fill="none" stroke="midnightblue" d="M229.949,-160.077C220.32,-150.335 209.906,-139.8 200.819,-130.607"/>
<polygon fill="midnightblue" stroke="midnightblue" points="227.606,-162.685 237.125,-167.336 232.584,-157.764 227.606,-162.685"/>
</g>
<!-- Node5 -->
<g id="node5" class="node"><title>Node5</title>
<g id="a_node5"><a xlink:href="var__buffer_8cpp.html" target="_top" xlink:title="/home/alaurenzi/Code\l/advr&#45;superbuild/external\l/MatLogger2/src/var_buffer.cpp">
<polygon fill="none" stroke="black" points="272,-84 272,-125 424,-125 424,-84 272,-84"/>
<text text-anchor="start" x="280" y="-113" font-family="Helvetica,sans-Serif" font-size="10.00">/home/alaurenzi/Code</text>
<text text-anchor="start" x="280" y="-102" font-family="Helvetica,sans-Serif" font-size="10.00">/advr&#45;superbuild/external</text>
<text text-anchor="middle" x="348" y="-91" font-family="Helvetica,sans-Serif" font-size="10.00">/MatLogger2/src/var_buffer.cpp</text>
</a>
</g>
</g>
<!-- Node1&#45;&gt;Node5 -->
<g id="edge4" class="edge"><title>Node1&#45;&gt;Node5</title>
<path fill="none" stroke="midnightblue" d="M293.947,-160.181C305.601,-148.392 318.416,-135.428 328.643,-125.082"/>
<polygon fill="midnightblue" stroke="midnightblue" points="291.416,-157.764 286.875,-167.336 296.394,-162.685 291.416,-157.764"/>
</g>
<!-- Node3 -->
<g id="node3" class="node"><title>Node3</title>
<g id="a_node3"><a xlink:href="mat__appender_8cpp.html" target="_top" xlink:title="/home/alaurenzi/Code\l/advr&#45;superbuild/external\l/MatLogger2/src/mat_appender.cpp">
<polygon fill="none" stroke="black" points="0,-0.5 0,-41.5 170,-41.5 170,-0.5 0,-0.5"/>
<text text-anchor="start" x="8" y="-29.5" font-family="Helvetica,sans-Serif" font-size="10.00">/home/alaurenzi/Code</text>
<text text-anchor="start" x="8" y="-18.5" font-family="Helvetica,sans-Serif" font-size="10.00">/advr&#45;superbuild/external</text>
<text text-anchor="middle" x="85" y="-7.5" font-family="Helvetica,sans-Serif" font-size="10.00">/MatLogger2/src/mat_appender.cpp</text>
</a>
</g>
</g>
<!-- Node2&#45;&gt;Node3 -->
<g id="edge2" class="edge"><title>Node2&#45;&gt;Node3</title>
<path fill="none" stroke="midnightblue" d="M140.109,-71.3555C128.895,-61.3128 116.866,-50.5393 106.916,-41.6282"/>
<polygon fill="midnightblue" stroke="midnightblue" points="137.922,-74.0953 147.706,-78.1596 142.592,-68.8808 137.922,-74.0953"/>
</g>
<!-- Node4 -->
<g id="node4" class="node"><title>Node4</title>
<g id="a_node4"><a xlink:href="matlogger2_8cpp.html" target="_top" xlink:title="/home/alaurenzi/Code\l/advr&#45;superbuild/external\l/MatLogger2/src/matlogger2.cpp">
<polygon fill="none" stroke="black" points="188.5,-0.5 188.5,-41.5 345.5,-41.5 345.5,-0.5 188.5,-0.5"/>
<text text-anchor="start" x="196.5" y="-29.5" font-family="Helvetica,sans-Serif" font-size="10.00">/home/alaurenzi/Code</text>
<text text-anchor="start" x="196.5" y="-18.5" font-family="Helvetica,sans-Serif" font-size="10.00">/advr&#45;superbuild/external</text>
<text text-anchor="middle" x="267" y="-7.5" font-family="Helvetica,sans-Serif" font-size="10.00">/MatLogger2/src/matlogger2.cpp</text>
</a>
</g>
</g>
<!-- Node2&#45;&gt;Node4 -->
<g id="edge3" class="edge"><title>Node2&#45;&gt;Node4</title>
<path fill="none" stroke="midnightblue" d="M211.891,-71.3555C223.105,-61.3128 235.134,-50.5393 245.084,-41.6282"/>
<polygon fill="midnightblue" stroke="midnightblue" points="209.408,-68.8808 204.294,-78.1596 214.078,-74.0953 209.408,-68.8808"/>
</g>
</g>
</svg>
