<?xml version="1.0" encoding="UTF-8" standalone="no"?>
<!DOCTYPE svg PUBLIC "-//W3C//DTD SVG 1.1//EN"
 "http://www.w3.org/Graphics/SVG/1.1/DTD/svg11.dtd">
<!-- Generated by graphviz version 2.38.0 (20140413.2041)
 -->
<!-- Title: /home/alaurenzi/Code/advr&#45;superbuild/external/MatLogger2/include/matlogger2/utils/var_buffer.h Pages: 1 -->
<svg width="242pt" height="117pt"
 viewBox="0.00 0.00 241.50 117.00" xmlns="http://www.w3.org/2000/svg" xmlns:xlink="http://www.w3.org/1999/xlink">
<g id="graph0" class="graph" transform="scale(1 1) rotate(0) translate(4 113)">
<title>/home/alaurenzi/Code/advr&#45;superbuild/external/MatLogger2/include/matlogger2/utils/var_buffer.h</title>
<!-- Node1 -->
<g id="node1" class="node"><title>Node1</title>
<polygon fill="#bfbfbf" stroke="black" points="8,-56.5 8,-108.5 163,-108.5 163,-56.5 8,-56.5"/>
<text text-anchor="start" x="16" y="-96.5" font-family="Helvetica,sans-Serif" font-size="10.00">/home/alaurenzi/Code</text>
<text text-anchor="start" x="16" y="-85.5" font-family="Helvetica,sans-Serif" font-size="10.00">/advr&#45;superbuild/external</text>
<text text-anchor="start" x="16" y="-74.5" font-family="Helvetica,sans-Serif" font-size="10.00">/MatLogger2/include/matlogger2</text>
<text text-anchor="middle" x="85.5" y="-63.5" font-family="Helvetica,sans-Serif" font-size="10.00">/utils/var_buffer.h</text>
</g>
<!-- Node2 -->
<g id="node2" class="node"><title>Node2</title>
<polygon fill="none" stroke="#bfbfbf" points="0,-0.5 0,-19.5 41,-19.5 41,-0.5 0,-0.5"/>
<text text-anchor="middle" x="20.5" y="-7.5" font-family="Helvetica,sans-Serif" font-size="10.00">string</text>
</g>
<!-- Node1&#45;&gt;Node2 -->
<g id="edge1" class="edge"><title>Node1&#45;&gt;Node2</title>
<path fill="none" stroke="midnightblue" d="M62.4004,-56.4458C53.441,-46.7283 43.4387,-35.8797 35.4542,-27.2196"/>
<polygon fill="midnightblue" stroke="midnightblue" points="37.8688,-24.6751 28.5171,-19.6955 32.7224,-29.42 37.8688,-24.6751"/>
</g>
<!-- Node3 -->
<g id="node3" class="node"><title>Node3</title>
<polygon fill="none" stroke="#bfbfbf" points="59.5,-0.5 59.5,-19.5 111.5,-19.5 111.5,-0.5 59.5,-0.5"/>
<text text-anchor="middle" x="85.5" y="-7.5" font-family="Helvetica,sans-Serif" font-size="10.00">memory</text>
</g>
<!-- Node1&#45;&gt;Node3 -->
<g id="edge2" class="edge"><title>Node1&#45;&gt;Node3</title>
<path fill="none" stroke="midnightblue" d="M85.5,-56.4458C85.5,-47.7301 85.5,-38.1045 85.5,-29.9641"/>
<polygon fill="midnightblue" stroke="midnightblue" points="89.0001,-29.6954 85.5,-19.6955 82.0001,-29.6955 89.0001,-29.6954"/>
</g>
<!-- Node4 -->
<g id="node4" class="node"><title>Node4</title>
<polygon fill="none" stroke="#bfbfbf" points="129.5,-0.5 129.5,-19.5 233.5,-19.5 233.5,-0.5 129.5,-0.5"/>
<text text-anchor="middle" x="181.5" y="-7.5" font-family="Helvetica,sans-Serif" font-size="10.00">eigen3/Eigen/Dense</text>
</g>
<!-- Node1&#45;&gt;Node4 -->
<g id="edge3" class="edge"><title>Node1&#45;&gt;Node4</title>
<path fill="none" stroke="midnightblue" d="M119.616,-56.4458C133.667,-46.1272 149.455,-34.5333 161.567,-25.6384"/>
<polygon fill="midnightblue" stroke="midnightblue" points="163.671,-28.4356 169.659,-19.6955 159.528,-22.7936 163.671,-28.4356"/>
</g>
</g>
</svg>
