<?xml version="1.0" encoding="UTF-8" standalone="no"?>
<!DOCTYPE svg PUBLIC "-//W3C//DTD SVG 1.1//EN"
 "http://www.w3.org/Graphics/SVG/1.1/DTD/svg11.dtd">
<!-- Generated by graphviz version 2.38.0 (20140413.2041)
 -->
<!-- Title: Graphical Class Hierarchy Pages: 1 -->
<svg width="261pt" height="88pt"
 viewBox="0.00 0.00 261.00 88.00" xmlns="http://www.w3.org/2000/svg" xmlns:xlink="http://www.w3.org/1999/xlink">
<g id="graph0" class="graph" transform="scale(1 1) rotate(0) translate(4 84)">
<title>Graphical Class Hierarchy</title>
<!-- Node1 -->
<g id="node1" class="node"><title>Node1</title>
<polygon fill="none" stroke="#bfbfbf" points="0,-30 0,-49 81,-49 81,-30 0,-30"/>
<text text-anchor="middle" x="40.5" y="-37" font-family="Helvetica,sans-Serif" font-size="10.00">ringbuffer_type</text>
</g>
<!-- Node2 -->
<g id="node2" class="node"><title>Node2</title>
<g id="a_node2"><a xlink:href="classboost_1_1lockfree_1_1spsc__queue.html" target="_top" xlink:title="The spsc_queue class provides a single&#45;writer/single&#45;reader fifo queue, pushing and popping is wait&#45;f...">
<polygon fill="none" stroke="black" points="131,-49.5 131,-79.5 239,-79.5 239,-49.5 131,-49.5"/>
<text text-anchor="start" x="139" y="-67.5" font-family="Helvetica,sans-Serif" font-size="10.00">boost::lockfree::spsc</text>
<text text-anchor="middle" x="185" y="-56.5" font-family="Helvetica,sans-Serif" font-size="10.00">_queue&lt; T, A0, A1 &gt;</text>
</a>
</g>
</g>
<!-- Node1&#45;&gt;Node2 -->
<g id="edge1" class="edge"><title>Node1&#45;&gt;Node2</title>
<path fill="none" stroke="midnightblue" d="M91.2323,-48.225C104.069,-50.477 117.934,-52.9095 130.934,-55.1901"/>
<polygon fill="midnightblue" stroke="midnightblue" points="91.6486,-44.7446 81.1942,-46.4639 90.4389,-51.6393 91.6486,-44.7446"/>
</g>
<!-- Node3 -->
<g id="node3" class="node"><title>Node3</title>
<g id="a_node3"><a xlink:href="classboost_1_1lockfree_1_1spsc__queue.html" target="_top" xlink:title="boost::lockfree::spsc\l_queue\&lt; BufferBlock::Ptr \&gt;">
<polygon fill="none" stroke="black" points="117,-0.5 117,-30.5 253,-30.5 253,-0.5 117,-0.5"/>
<text text-anchor="start" x="125" y="-18.5" font-family="Helvetica,sans-Serif" font-size="10.00">boost::lockfree::spsc</text>
<text text-anchor="middle" x="185" y="-7.5" font-family="Helvetica,sans-Serif" font-size="10.00">_queue&lt; BufferBlock::Ptr &gt;</text>
</a>
</g>
</g>
<!-- Node1&#45;&gt;Node3 -->
<g id="edge2" class="edge"><title>Node1&#45;&gt;Node3</title>
<path fill="none" stroke="midnightblue" d="M91.1222,-31.1426C99.468,-29.737 108.251,-28.2577 116.95,-26.7926"/>
<polygon fill="midnightblue" stroke="midnightblue" points="90.474,-27.7024 81.1942,-32.8147 91.6366,-34.6052 90.474,-27.7024"/>
</g>
</g>
</svg>
