<?xml version="1.0" encoding="UTF-8" standalone="no"?>
<!DOCTYPE svg PUBLIC "-//W3C//DTD SVG 1.1//EN"
 "http://www.w3.org/Graphics/SVG/1.1/DTD/svg11.dtd">
<!-- Generated by graphviz version 2.38.0 (20140413.2041)
 -->
<!-- Title: Graphical Class Hierarchy Pages: 1 -->
<svg width="342pt" height="66pt"
 viewBox="0.00 0.00 342.00 66.00" xmlns="http://www.w3.org/2000/svg" xmlns:xlink="http://www.w3.org/1999/xlink">
<g id="graph0" class="graph" transform="scale(1 1) rotate(0) translate(4 62)">
<title>Graphical Class Hierarchy</title>
<!-- Node1 -->
<g id="node1" class="node"><title>Node1</title>
<g id="a_node1"><a xlink:href="classXBot_1_1matlogger2_1_1Backend.html" target="_top" xlink:title="XBot::matlogger2::Backend">
<polygon fill="none" stroke="black" points="0,-19.5 0,-38.5 137,-38.5 137,-19.5 0,-19.5"/>
<text text-anchor="middle" x="68.5" y="-26.5" font-family="Helvetica,sans-Serif" font-size="10.00">XBot::matlogger2::Backend</text>
</a>
</g>
</g>
<!-- Node2 -->
<g id="node2" class="node"><title>Node2</title>
<g id="a_node2"><a xlink:href="classDummyBackend.html" target="_top" xlink:title="DummyBackend">
<polygon fill="none" stroke="black" points="209,-38.5 209,-57.5 298,-57.5 298,-38.5 209,-38.5"/>
<text text-anchor="middle" x="253.5" y="-45.5" font-family="Helvetica,sans-Serif" font-size="10.00">DummyBackend</text>
</a>
</g>
</g>
<!-- Node1&#45;&gt;Node2 -->
<g id="edge1" class="edge"><title>Node1&#45;&gt;Node2</title>
<path fill="none" stroke="midnightblue" d="M147.336,-37.0813C168.342,-39.2622 190.33,-41.5452 208.739,-43.4565"/>
<polygon fill="midnightblue" stroke="midnightblue" points="147.431,-33.5724 137.123,-36.0209 146.708,-40.535 147.431,-33.5724"/>
</g>
<!-- Node3 -->
<g id="node3" class="node"><title>Node3</title>
<g id="a_node3"><a xlink:href="classXBot_1_1matlogger2_1_1MatioBackend.html" target="_top" xlink:title="XBot::matlogger2::MatioBackend">
<polygon fill="none" stroke="black" points="173,-0.5 173,-19.5 334,-19.5 334,-0.5 173,-0.5"/>
<text text-anchor="middle" x="253.5" y="-7.5" font-family="Helvetica,sans-Serif" font-size="10.00">XBot::matlogger2::MatioBackend</text>
</a>
</g>
</g>
<!-- Node1&#45;&gt;Node3 -->
<g id="edge2" class="edge"><title>Node1&#45;&gt;Node3</title>
<path fill="none" stroke="midnightblue" d="M147.306,-20.9217C155.736,-20.0465 164.324,-19.1549 172.776,-18.2773"/>
<polygon fill="midnightblue" stroke="midnightblue" points="146.708,-17.465 137.123,-21.9791 147.431,-24.4276 146.708,-17.465"/>
</g>
</g>
</svg>
