<?xml version="1.0" encoding="UTF-8" standalone="no"?>
<!DOCTYPE svg PUBLIC "-//W3C//DTD SVG 1.1//EN"
 "http://www.w3.org/Graphics/SVG/1.1/DTD/svg11.dtd">
<!-- Generated by graphviz version 2.38.0 (20140413.2041)
 -->
<!-- Title: XBot::MatAppender::Impl Pages: 1 -->
<svg width="314pt" height="480pt"
 viewBox="0.00 0.00 314.00 480.00" xmlns="http://www.w3.org/2000/svg" xmlns:xlink="http://www.w3.org/1999/xlink">
<g id="graph0" class="graph" transform="scale(1 1) rotate(0) translate(4 476)">
<title>XBot::MatAppender::Impl</title>
<!-- Node1 -->
<g id="node1" class="node"><title>Node1</title>
<polygon fill="#bfbfbf" stroke="black" points="122,-0.5 122,-145.5 257,-145.5 257,-0.5 122,-0.5"/>
<text text-anchor="middle" x="189.5" y="-133.5" font-family="Helvetica,sans-Serif" font-size="10.00">XBot::MatAppender::Impl</text>
<polyline fill="none" stroke="black" points="122,-126.5 257,-126.5 "/>
<text text-anchor="start" x="130" y="-114.5" font-family="Helvetica,sans-Serif" font-size="10.00">+ _loggers_mutex</text>
<text text-anchor="start" x="130" y="-103.5" font-family="Helvetica,sans-Serif" font-size="10.00">+ _available_bytes</text>
<text text-anchor="start" x="130" y="-92.5" font-family="Helvetica,sans-Serif" font-size="10.00">+ _cond_mutex</text>
<text text-anchor="start" x="130" y="-81.5" font-family="Helvetica,sans-Serif" font-size="10.00">+ _cond</text>
<text text-anchor="start" x="130" y="-70.5" font-family="Helvetica,sans-Serif" font-size="10.00">+ _flush_thread_wake_up</text>
<text text-anchor="start" x="130" y="-59.5" font-family="Helvetica,sans-Serif" font-size="10.00">+ _flush_thread_run</text>
<polyline fill="none" stroke="black" points="122,-52.5 257,-52.5 "/>
<text text-anchor="start" x="130" y="-40.5" font-family="Helvetica,sans-Serif" font-size="10.00">+ flush_thread_main()</text>
<text text-anchor="start" x="130" y="-29.5" font-family="Helvetica,sans-Serif" font-size="10.00">+ flush_available_data_all()</text>
<text text-anchor="start" x="130" y="-18.5" font-family="Helvetica,sans-Serif" font-size="10.00">+ on_block_available()</text>
<text text-anchor="start" x="130" y="-7.5" font-family="Helvetica,sans-Serif" font-size="10.00">+ Impl()</text>
</g>
<!-- Node2 -->
<g id="node2" class="node"><title>Node2</title>
<polygon fill="none" stroke="#bfbfbf" points="0,-193.5 0,-261.5 137,-261.5 137,-193.5 0,-193.5"/>
<text text-anchor="start" x="8" y="-249.5" font-family="Helvetica,sans-Serif" font-size="10.00">std::list&lt; XBot::MatLogger2</text>
<text text-anchor="middle" x="68.5" y="-238.5" font-family="Helvetica,sans-Serif" font-size="10.00">::WeakPtr &gt;</text>
<polyline fill="none" stroke="#bfbfbf" points="0,-231.5 137,-231.5 "/>
<text text-anchor="middle" x="68.5" y="-219.5" font-family="Helvetica,sans-Serif" font-size="10.00"> </text>
<polyline fill="none" stroke="#bfbfbf" points="0,-212.5 137,-212.5 "/>
<text text-anchor="middle" x="68.5" y="-200.5" font-family="Helvetica,sans-Serif" font-size="10.00"> </text>
</g>
<!-- Node2&#45;&gt;Node1 -->
<g id="edge1" class="edge"><title>Node2&#45;&gt;Node1</title>
<path fill="none" stroke="#404040" d="M94.7552,-193.41C103.847,-181.951 114.478,-168.552 125.268,-154.953"/>
<polygon fill="none" stroke="#404040" points="125.288,-154.929 125.884,-147.742 132.746,-145.528 132.15,-152.715 125.288,-154.929"/>
<text text-anchor="middle" x="138.5" y="-167" font-family="Helvetica,sans-Serif" font-size="10.00"> +_loggers</text>
</g>
<!-- Node3 -->
<g id="node3" class="node"><title>Node3</title>
<g id="a_node3"><a xlink:title="STL class. ">
<polygon fill="none" stroke="#bfbfbf" points="18.5,-309.5 18.5,-366.5 118.5,-366.5 118.5,-309.5 18.5,-309.5"/>
<text text-anchor="middle" x="68.5" y="-354.5" font-family="Helvetica,sans-Serif" font-size="10.00">std::weak_ptr&lt; T &gt;</text>
<polyline fill="none" stroke="#bfbfbf" points="18.5,-347.5 118.5,-347.5 "/>
<text text-anchor="middle" x="68.5" y="-335.5" font-family="Helvetica,sans-Serif" font-size="10.00"> </text>
<polyline fill="none" stroke="#bfbfbf" points="18.5,-328.5 118.5,-328.5 "/>
<text text-anchor="start" x="26.5" y="-316.5" font-family="Helvetica,sans-Serif" font-size="10.00">+ operator&#45;&gt;()</text>
</a>
</g>
</g>
<!-- Node3&#45;&gt;Node2 -->
<g id="edge2" class="edge"><title>Node3&#45;&gt;Node2</title>
<path fill="none" stroke="#404040" d="M68.5,-309.34C68.5,-298.529 68.5,-285.847 68.5,-273.775"/>
<polygon fill="none" stroke="#404040" points="68.5001,-273.519 64.5,-267.519 68.5,-261.519 72.5,-267.519 68.5001,-273.519"/>
<text text-anchor="middle" x="93" y="-283" font-family="Helvetica,sans-Serif" font-size="10.00"> +elements</text>
</g>
<!-- Node4 -->
<g id="node4" class="node"><title>Node4</title>
<polygon fill="none" stroke="#bfbfbf" points="54,-414.5 54,-471.5 83,-471.5 83,-414.5 54,-414.5"/>
<text text-anchor="middle" x="68.5" y="-459.5" font-family="Helvetica,sans-Serif" font-size="10.00">T</text>
<polyline fill="none" stroke="#bfbfbf" points="54,-452.5 83,-452.5 "/>
<text text-anchor="middle" x="68.5" y="-440.5" font-family="Helvetica,sans-Serif" font-size="10.00"> </text>
<polyline fill="none" stroke="#bfbfbf" points="54,-433.5 83,-433.5 "/>
<text text-anchor="middle" x="68.5" y="-421.5" font-family="Helvetica,sans-Serif" font-size="10.00"> </text>
</g>
<!-- Node4&#45;&gt;Node3 -->
<g id="edge3" class="edge"><title>Node4&#45;&gt;Node3</title>
<path fill="none" stroke="#404040" d="M68.5,-414.398C68.5,-403.545 68.5,-390.873 68.5,-379.049"/>
<polygon fill="none" stroke="#404040" points="68.5001,-378.678 64.5,-372.678 68.5,-366.678 72.5,-372.678 68.5001,-378.678"/>
<text text-anchor="middle" x="79" y="-388" font-family="Helvetica,sans-Serif" font-size="10.00"> +ptr</text>
</g>
<!-- Node5 -->
<g id="node5" class="node"><title>Node5</title>
<polygon fill="none" stroke="#bfbfbf" points="155,-199 155,-256 306,-256 306,-199 155,-199"/>
<text text-anchor="middle" x="230.5" y="-244" font-family="Helvetica,sans-Serif" font-size="10.00">std::unique_ptr&lt; ThreadType &gt;</text>
<polyline fill="none" stroke="#bfbfbf" points="155,-237 306,-237 "/>
<text text-anchor="start" x="163" y="-225" font-family="Helvetica,sans-Serif" font-size="10.00">+ ptr</text>
<polyline fill="none" stroke="#bfbfbf" points="155,-218 306,-218 "/>
<text text-anchor="start" x="163" y="-206" font-family="Helvetica,sans-Serif" font-size="10.00">+ operator&#45;&gt;()</text>
</g>
<!-- Node5&#45;&gt;Node1 -->
<g id="edge4" class="edge"><title>Node5&#45;&gt;Node1</title>
<path fill="none" stroke="#404040" d="M223.075,-198.883C219.889,-187.031 215.979,-172.488 211.967,-157.568"/>
<polygon fill="none" stroke="#404040" points="211.856,-157.154 206.436,-152.399 208.741,-145.566 214.161,-150.322 211.856,-157.154"/>
<text text-anchor="middle" x="249.5" y="-167" font-family="Helvetica,sans-Serif" font-size="10.00"> +_flush_thread</text>
</g>
</g>
</svg>
