<?xml version="1.0" encoding="UTF-8" standalone="no"?>
<!DOCTYPE svg PUBLIC "-//W3C//DTD SVG 1.1//EN"
 "http://www.w3.org/Graphics/SVG/1.1/DTD/svg11.dtd">
<!-- Generated by graphviz version 2.38.0 (20140413.2041)
 -->
<!-- Title: DummyBackend Pages: 1 -->
<svg width="145pt" height="215pt"
 viewBox="0.00 0.00 145.00 215.00" xmlns="http://www.w3.org/2000/svg" xmlns:xlink="http://www.w3.org/1999/xlink">
<g id="graph0" class="graph" transform="scale(1 1) rotate(0) translate(4 211)">
<title>DummyBackend</title>
<!-- Node1 -->
<g id="node1" class="node"><title>Node1</title>
<polygon fill="#bfbfbf" stroke="black" points="24,-0.5 24,-79.5 113,-79.5 113,-0.5 24,-0.5"/>
<text text-anchor="middle" x="68.5" y="-67.5" font-family="Helvetica,sans-Serif" font-size="10.00">DummyBackend</text>
<polyline fill="none" stroke="black" points="24,-60.5 113,-60.5 "/>
<text text-anchor="middle" x="68.5" y="-48.5" font-family="Helvetica,sans-Serif" font-size="10.00"> </text>
<polyline fill="none" stroke="black" points="24,-41.5 113,-41.5 "/>
<text text-anchor="start" x="32" y="-29.5" font-family="Helvetica,sans-Serif" font-size="10.00">+ close()</text>
<text text-anchor="start" x="32" y="-18.5" font-family="Helvetica,sans-Serif" font-size="10.00">+ init()</text>
<text text-anchor="start" x="32" y="-7.5" font-family="Helvetica,sans-Serif" font-size="10.00">+ write()</text>
</g>
<!-- Node2 -->
<g id="node2" class="node"><title>Node2</title>
<g id="a_node2"><a xlink:href="classXBot_1_1matlogger2_1_1Backend.html" target="_top" xlink:title="{XBot::matlogger2::Backend\n||+ init()\l+ write()\l+ close()\l+ MakeInstance()\l}">
<polygon fill="none" stroke="black" points="0,-116.5 0,-206.5 137,-206.5 137,-116.5 0,-116.5"/>
<text text-anchor="middle" x="68.5" y="-194.5" font-family="Helvetica,sans-Serif" font-size="10.00">XBot::matlogger2::Backend</text>
<polyline fill="none" stroke="black" points="0,-187.5 137,-187.5 "/>
<text text-anchor="middle" x="68.5" y="-175.5" font-family="Helvetica,sans-Serif" font-size="10.00"> </text>
<polyline fill="none" stroke="black" points="0,-168.5 137,-168.5 "/>
<text text-anchor="start" x="8" y="-156.5" font-family="Helvetica,sans-Serif" font-size="10.00">+ init()</text>
<text text-anchor="start" x="8" y="-145.5" font-family="Helvetica,sans-Serif" font-size="10.00">+ write()</text>
<text text-anchor="start" x="8" y="-134.5" font-family="Helvetica,sans-Serif" font-size="10.00">+ close()</text>
<text text-anchor="start" x="8" y="-123.5" font-family="Helvetica,sans-Serif" font-size="10.00">+ MakeInstance()</text>
</a>
</g>
</g>
<!-- Node2&#45;&gt;Node1 -->
<g id="edge1" class="edge"><title>Node2&#45;&gt;Node1</title>
<path fill="none" stroke="midnightblue" d="M68.5,-106.079C68.5,-97.234 68.5,-88.2325 68.5,-79.8576"/>
<polygon fill="none" stroke="midnightblue" points="65.0001,-106.342 68.5,-116.342 72.0001,-106.342 65.0001,-106.342"/>
</g>
</g>
</svg>
