<?xml version="1.0" encoding="UTF-8" standalone="no"?>
<!DOCTYPE svg PUBLIC "-//W3C//DTD SVG 1.1//EN"
 "http://www.w3.org/Graphics/SVG/1.1/DTD/svg11.dtd">
<!-- Generated by graphviz version 2.38.0 (20140413.2041)
 -->
<!-- Title: Graphical Class Hierarchy Pages: 1 -->
<svg width="312pt" height="110pt"
 viewBox="0.00 0.00 312.00 110.00" xmlns="http://www.w3.org/2000/svg" xmlns:xlink="http://www.w3.org/1999/xlink">
<g id="graph0" class="graph" transform="scale(1 1) rotate(0) translate(4 106)">
<title>Graphical Class Hierarchy</title>
<!-- Node1 -->
<g id="node1" class="node"><title>Node1</title>
<polygon fill="none" stroke="#bfbfbf" points="37.5,-71.5 37.5,-90.5 75.5,-90.5 75.5,-71.5 37.5,-71.5"/>
<text text-anchor="middle" x="56.5" y="-78.5" font-family="Helvetica,sans-Serif" font-size="10.00">Alloc</text>
</g>
<!-- Node2 -->
<g id="node2" class="node"><title>Node2</title>
<g id="a_node2"><a xlink:href="classboost_1_1lockfree_1_1detail_1_1runtime__sized__ringbuffer.html" target="_top" xlink:title="boost::lockfree::detail\l::runtime_sized_ringbuffer\l\&lt; T, Alloc \&gt;">
<polygon fill="none" stroke="black" points="162,-60.5 162,-101.5 291,-101.5 291,-60.5 162,-60.5"/>
<text text-anchor="start" x="170" y="-89.5" font-family="Helvetica,sans-Serif" font-size="10.00">boost::lockfree::detail</text>
<text text-anchor="start" x="170" y="-78.5" font-family="Helvetica,sans-Serif" font-size="10.00">::runtime_sized_ringbuffer</text>
<text text-anchor="middle" x="226.5" y="-67.5" font-family="Helvetica,sans-Serif" font-size="10.00">&lt; T, Alloc &gt;</text>
</a>
</g>
</g>
<!-- Node1&#45;&gt;Node2 -->
<g id="edge1" class="edge"><title>Node1&#45;&gt;Node2</title>
<path fill="none" stroke="#8b1a1a" d="M85.8298,-81C106.557,-81 135.511,-81 161.685,-81"/>
<polygon fill="#8b1a1a" stroke="#8b1a1a" points="85.7988,-77.5001 75.7988,-81 85.7987,-84.5001 85.7988,-77.5001"/>
</g>
<!-- Node3 -->
<g id="node3" class="node"><title>Node3</title>
<g id="a_node3"><a xlink:href="classboost_1_1lockfree_1_1detail_1_1ringbuffer__base.html" target="_top" xlink:title="boost::lockfree::detail\l::ringbuffer_base\&lt; T \&gt;">
<polygon fill="none" stroke="black" points="0,-14 0,-44 113,-44 113,-14 0,-14"/>
<text text-anchor="start" x="8" y="-32" font-family="Helvetica,sans-Serif" font-size="10.00">boost::lockfree::detail</text>
<text text-anchor="middle" x="56.5" y="-21" font-family="Helvetica,sans-Serif" font-size="10.00">::ringbuffer_base&lt; T &gt;</text>
</a>
</g>
</g>
<!-- Node3&#45;&gt;Node2 -->
<g id="edge3" class="edge"><title>Node3&#45;&gt;Node2</title>
<path fill="none" stroke="midnightblue" d="M115.714,-47.0188C130.655,-51.6432 146.801,-56.6407 161.994,-61.3433"/>
<polygon fill="midnightblue" stroke="midnightblue" points="116.68,-43.654 106.093,-44.0406 114.611,-50.341 116.68,-43.654"/>
</g>
<!-- Node4 -->
<g id="node4" class="node"><title>Node4</title>
<g id="a_node4"><a xlink:href="classboost_1_1lockfree_1_1detail_1_1compile__time__sized__ringbuffer.html" target="_top" xlink:title="boost::lockfree::detail\l::compile_time_sized_ringbuffer\l\&lt; T, MaxSize \&gt;">
<polygon fill="none" stroke="black" points="149,-0.5 149,-41.5 304,-41.5 304,-0.5 149,-0.5"/>
<text text-anchor="start" x="157" y="-29.5" font-family="Helvetica,sans-Serif" font-size="10.00">boost::lockfree::detail</text>
<text text-anchor="start" x="157" y="-18.5" font-family="Helvetica,sans-Serif" font-size="10.00">::compile_time_sized_ringbuffer</text>
<text text-anchor="middle" x="226.5" y="-7.5" font-family="Helvetica,sans-Serif" font-size="10.00">&lt; T, MaxSize &gt;</text>
</a>
</g>
</g>
<!-- Node3&#45;&gt;Node4 -->
<g id="edge2" class="edge"><title>Node3&#45;&gt;Node4</title>
<path fill="none" stroke="midnightblue" d="M123.462,-25.8589C131.798,-25.462 140.382,-25.0533 148.865,-24.6493"/>
<polygon fill="midnightblue" stroke="midnightblue" points="123.264,-22.3643 113.442,-26.3361 123.597,-29.3564 123.264,-22.3643"/>
</g>
</g>
</svg>
