<?xml version="1.0" encoding="UTF-8" standalone="no"?>
<!DOCTYPE svg PUBLIC "-//W3C//DTD SVG 1.1//EN"
 "http://www.w3.org/Graphics/SVG/1.1/DTD/svg11.dtd">
<!-- Generated by graphviz version 2.38.0 (20140413.2041)
 -->
<!-- Title: /home/arturo/Code/advr&#45;superbuild/external/MatLogger2/src/mat_appender.cpp Pages: 1 -->
<svg width="695pt" height="229pt"
 viewBox="0.00 0.00 694.50 229.00" xmlns="http://www.w3.org/2000/svg" xmlns:xlink="http://www.w3.org/1999/xlink">
<g id="graph0" class="graph" transform="scale(1 1) rotate(0) translate(4 225)">
<title>/home/arturo/Code/advr&#45;superbuild/external/MatLogger2/src/mat_appender.cpp</title>
<!-- Node1 -->
<g id="node1" class="node"><title>Node1</title>
<polygon fill="#bfbfbf" stroke="black" points="349,-179.5 349,-220.5 504,-220.5 504,-179.5 349,-179.5"/>
<text text-anchor="start" x="357" y="-208.5" font-family="Helvetica,sans-Serif" font-size="10.00">/home/arturo/Code/advr</text>
<text text-anchor="start" x="357" y="-197.5" font-family="Helvetica,sans-Serif" font-size="10.00">&#45;superbuild/external/MatLogger2</text>
<text text-anchor="middle" x="426.5" y="-186.5" font-family="Helvetica,sans-Serif" font-size="10.00">/src/mat_appender.cpp</text>
</g>
<!-- Node2 -->
<g id="node2" class="node"><title>Node2</title>
<g id="a_node2"><a xlink:href="mat__appender_8h.html" target="_top" xlink:title="matlogger2/utils/mat\l_appender.h">
<polygon fill="none" stroke="black" points="0,-56.5 0,-86.5 105,-86.5 105,-56.5 0,-56.5"/>
<text text-anchor="start" x="8" y="-74.5" font-family="Helvetica,sans-Serif" font-size="10.00">matlogger2/utils/mat</text>
<text text-anchor="middle" x="52.5" y="-63.5" font-family="Helvetica,sans-Serif" font-size="10.00">_appender.h</text>
</a>
</g>
</g>
<!-- Node1&#45;&gt;Node2 -->
<g id="edge1" class="edge"><title>Node1&#45;&gt;Node2</title>
<path fill="none" stroke="midnightblue" d="M348.729,-181.635C307.996,-171.77 257.556,-158.333 213.5,-143 170.222,-127.938 122.315,-106.287 90.1035,-90.9598"/>
<polygon fill="midnightblue" stroke="midnightblue" points="91.5734,-87.7832 81.0428,-86.6183 88.5486,-94.0959 91.5734,-87.7832"/>
</g>
<!-- Node4 -->
<g id="node4" class="node"><title>Node4</title>
<g id="a_node4"><a xlink:href="matlogger2_8h.html" target="_top" xlink:title="matlogger2/matlogger2.h">
<polygon fill="none" stroke="black" points="222.5,-123.5 222.5,-142.5 346.5,-142.5 346.5,-123.5 222.5,-123.5"/>
<text text-anchor="middle" x="284.5" y="-130.5" font-family="Helvetica,sans-Serif" font-size="10.00">matlogger2/matlogger2.h</text>
</a>
</g>
</g>
<!-- Node1&#45;&gt;Node4 -->
<g id="edge3" class="edge"><title>Node1&#45;&gt;Node4</title>
<path fill="none" stroke="midnightblue" d="M383.895,-179.498C360.868,-168.957 333.07,-156.233 312.733,-146.923"/>
<polygon fill="midnightblue" stroke="midnightblue" points="313.952,-143.632 303.402,-142.652 311.038,-149.997 313.952,-143.632"/>
</g>
<!-- Node9 -->
<g id="node9" class="node"><title>Node9</title>
<polygon fill="none" stroke="#bfbfbf" points="364.5,-123.5 364.5,-142.5 420.5,-142.5 420.5,-123.5 364.5,-123.5"/>
<text text-anchor="middle" x="392.5" y="-130.5" font-family="Helvetica,sans-Serif" font-size="10.00">algorithm</text>
</g>
<!-- Node1&#45;&gt;Node9 -->
<g id="edge12" class="edge"><title>Node1&#45;&gt;Node9</title>
<path fill="none" stroke="midnightblue" d="M416.299,-179.498C411.688,-170.682 406.277,-160.339 401.781,-151.743"/>
<polygon fill="midnightblue" stroke="midnightblue" points="404.762,-149.891 397.026,-142.652 398.56,-153.136 404.762,-149.891"/>
</g>
<!-- Node10 -->
<g id="node10" class="node"><title>Node10</title>
<polygon fill="none" stroke="#bfbfbf" points="438.5,-123.5 438.5,-142.5 484.5,-142.5 484.5,-123.5 438.5,-123.5"/>
<text text-anchor="middle" x="461.5" y="-130.5" font-family="Helvetica,sans-Serif" font-size="10.00">atomic</text>
</g>
<!-- Node1&#45;&gt;Node10 -->
<g id="edge13" class="edge"><title>Node1&#45;&gt;Node10</title>
<path fill="none" stroke="midnightblue" d="M437.001,-179.498C441.8,-170.586 447.439,-160.113 452.097,-151.464"/>
<polygon fill="midnightblue" stroke="midnightblue" points="455.182,-153.117 456.841,-142.652 449.018,-149.798 455.182,-153.117"/>
</g>
<!-- Node11 -->
<g id="node11" class="node"><title>Node11</title>
<polygon fill="none" stroke="#bfbfbf" points="503,-123.5 503,-142.5 532,-142.5 532,-123.5 503,-123.5"/>
<text text-anchor="middle" x="517.5" y="-130.5" font-family="Helvetica,sans-Serif" font-size="10.00">list</text>
</g>
<!-- Node1&#45;&gt;Node11 -->
<g id="edge14" class="edge"><title>Node1&#45;&gt;Node11</title>
<path fill="none" stroke="midnightblue" d="M453.803,-179.498C467.755,-169.532 484.44,-157.614 497.233,-148.476"/>
<polygon fill="midnightblue" stroke="midnightblue" points="499.284,-151.313 505.387,-142.652 495.215,-145.617 499.284,-151.313"/>
</g>
<!-- Node12 -->
<g id="node12" class="node"><title>Node12</title>
<g id="a_node12"><a xlink:href="thread_8h.html" target="_top" xlink:title="thread.h">
<polygon fill="none" stroke="black" points="550.5,-123.5 550.5,-142.5 602.5,-142.5 602.5,-123.5 550.5,-123.5"/>
<text text-anchor="middle" x="576.5" y="-130.5" font-family="Helvetica,sans-Serif" font-size="10.00">thread.h</text>
</a>
</g>
</g>
<!-- Node1&#45;&gt;Node12 -->
<g id="edge15" class="edge"><title>Node1&#45;&gt;Node12</title>
<path fill="none" stroke="midnightblue" d="M471.505,-179.498C496.051,-168.861 525.728,-156.001 547.26,-146.67"/>
<polygon fill="midnightblue" stroke="midnightblue" points="548.749,-149.84 556.533,-142.652 545.966,-143.417 548.749,-149.84"/>
</g>
<!-- Node3 -->
<g id="node3" class="node"><title>Node3</title>
<polygon fill="none" stroke="#bfbfbf" points="107.5,-0.5 107.5,-19.5 159.5,-19.5 159.5,-0.5 107.5,-0.5"/>
<text text-anchor="middle" x="133.5" y="-7.5" font-family="Helvetica,sans-Serif" font-size="10.00">memory</text>
</g>
<!-- Node2&#45;&gt;Node3 -->
<g id="edge2" class="edge"><title>Node2&#45;&gt;Node3</title>
<path fill="none" stroke="midnightblue" d="M71.6959,-56.3993C84.3155,-47.1293 100.793,-35.0254 113.561,-25.6469"/>
<polygon fill="midnightblue" stroke="midnightblue" points="115.727,-28.3987 121.714,-19.6578 111.582,-22.7572 115.727,-28.3987"/>
</g>
<!-- Node4&#45;&gt;Node3 -->
<g id="edge5" class="edge"><title>Node4&#45;&gt;Node3</title>
<path fill="none" stroke="midnightblue" d="M222.262,-123.913C197.436,-117.668 170.529,-106.603 152.5,-87 138.287,-71.5465 134.306,-47.094 133.386,-30.1153"/>
<polygon fill="midnightblue" stroke="midnightblue" points="136.877,-29.6747 133.149,-19.7573 129.879,-29.8346 136.877,-29.6747"/>
</g>
<!-- Node5 -->
<g id="node5" class="node"><title>Node5</title>
<polygon fill="none" stroke="#bfbfbf" points="224,-0.5 224,-19.5 265,-19.5 265,-0.5 224,-0.5"/>
<text text-anchor="middle" x="244.5" y="-7.5" font-family="Helvetica,sans-Serif" font-size="10.00">string</text>
</g>
<!-- Node4&#45;&gt;Node5 -->
<g id="edge4" class="edge"><title>Node4&#45;&gt;Node5</title>
<path fill="none" stroke="midnightblue" d="M284.244,-123.283C283.578,-108.853 281.173,-79.2826 272.5,-56 268.813,-46.1016 262.802,-36.0318 257.293,-27.9347"/>
<polygon fill="midnightblue" stroke="midnightblue" points="260.101,-25.8438 251.437,-19.7453 254.407,-29.9154 260.101,-25.8438"/>
</g>
<!-- Node6 -->
<g id="node6" class="node"><title>Node6</title>
<polygon fill="none" stroke="#bfbfbf" points="320,-62 320,-81 403,-81 403,-62 320,-62"/>
<text text-anchor="middle" x="361.5" y="-69" font-family="Helvetica,sans-Serif" font-size="10.00">unordered_map</text>
</g>
<!-- Node4&#45;&gt;Node6 -->
<g id="edge6" class="edge"><title>Node4&#45;&gt;Node6</title>
<path fill="none" stroke="midnightblue" d="M295.532,-123.475C307.768,-114.02 327.729,-98.5961 342.493,-87.1871"/>
<polygon fill="midnightblue" stroke="midnightblue" points="344.715,-89.8931 350.488,-81.0091 340.435,-84.3541 344.715,-89.8931"/>
</g>
<!-- Node7 -->
<g id="node7" class="node"><title>Node7</title>
<polygon fill="none" stroke="#bfbfbf" points="347.5,-0.5 347.5,-19.5 451.5,-19.5 451.5,-0.5 347.5,-0.5"/>
<text text-anchor="middle" x="399.5" y="-7.5" font-family="Helvetica,sans-Serif" font-size="10.00">eigen3/Eigen/Dense</text>
</g>
<!-- Node4&#45;&gt;Node7 -->
<g id="edge7" class="edge"><title>Node4&#45;&gt;Node7</title>
<path fill="none" stroke="midnightblue" d="M346.817,-125.29C371.115,-119.278 396.651,-108.014 411.5,-87 423.501,-70.0155 416.467,-45.5807 409.112,-29.0392"/>
<polygon fill="midnightblue" stroke="midnightblue" points="412.184,-27.3539 404.658,-19.8969 405.891,-30.4198 412.184,-27.3539"/>
</g>
<!-- Node8 -->
<g id="node8" class="node"><title>Node8</title>
<g id="a_node8"><a xlink:href="var__buffer_8h.html" target="_top" xlink:title="matlogger2/utils/var\l_buffer.h">
<polygon fill="none" stroke="black" points="161.5,-56.5 161.5,-86.5 263.5,-86.5 263.5,-56.5 161.5,-56.5"/>
<text text-anchor="start" x="169.5" y="-74.5" font-family="Helvetica,sans-Serif" font-size="10.00">matlogger2/utils/var</text>
<text text-anchor="middle" x="212.5" y="-63.5" font-family="Helvetica,sans-Serif" font-size="10.00">_buffer.h</text>
</a>
</g>
</g>
<!-- Node4&#45;&gt;Node8 -->
<g id="edge8" class="edge"><title>Node4&#45;&gt;Node8</title>
<path fill="none" stroke="midnightblue" d="M274.184,-123.475C264.615,-115.567 249.994,-103.485 237.388,-93.0675"/>
<polygon fill="midnightblue" stroke="midnightblue" points="239.407,-90.1952 229.469,-86.523 234.948,-95.5912 239.407,-90.1952"/>
</g>
<!-- Node8&#45;&gt;Node3 -->
<g id="edge10" class="edge"><title>Node8&#45;&gt;Node3</title>
<path fill="none" stroke="midnightblue" d="M193.778,-56.3993C181.588,-47.2185 165.708,-35.2579 153.307,-25.9182"/>
<polygon fill="midnightblue" stroke="midnightblue" points="155.089,-22.8782 144.995,-19.6578 150.877,-28.4697 155.089,-22.8782"/>
</g>
<!-- Node8&#45;&gt;Node5 -->
<g id="edge9" class="edge"><title>Node8&#45;&gt;Node5</title>
<path fill="none" stroke="midnightblue" d="M220.084,-56.3993C224.542,-48.1098 230.219,-37.5542 234.977,-28.7077"/>
<polygon fill="midnightblue" stroke="midnightblue" points="238.19,-30.1227 239.844,-19.6578 232.025,-26.8071 238.19,-30.1227"/>
</g>
<!-- Node8&#45;&gt;Node7 -->
<g id="edge11" class="edge"><title>Node8&#45;&gt;Node7</title>
<path fill="none" stroke="midnightblue" d="M256.816,-56.3993C289.129,-46.118 332.398,-32.3506 362.786,-22.6818"/>
<polygon fill="midnightblue" stroke="midnightblue" points="364.095,-25.9383 372.563,-19.5709 361.972,-19.2678 364.095,-25.9383"/>
</g>
<!-- Node13 -->
<g id="node13" class="node"><title>Node13</title>
<polygon fill="none" stroke="#bfbfbf" points="466.5,-62 466.5,-81 510.5,-81 510.5,-62 466.5,-62"/>
<text text-anchor="middle" x="488.5" y="-69" font-family="Helvetica,sans-Serif" font-size="10.00">mutex</text>
</g>
<!-- Node12&#45;&gt;Node13 -->
<g id="edge16" class="edge"><title>Node12&#45;&gt;Node13</title>
<path fill="none" stroke="midnightblue" d="M563.892,-123.475C549.777,-113.931 526.669,-98.3073 509.751,-86.8683"/>
<polygon fill="midnightblue" stroke="midnightblue" points="511.329,-83.7109 501.085,-81.0091 507.409,-89.5098 511.329,-83.7109"/>
</g>
<!-- Node14 -->
<g id="node14" class="node"><title>Node14</title>
<polygon fill="none" stroke="#bfbfbf" points="529,-62 529,-81 624,-81 624,-62 529,-62"/>
<text text-anchor="middle" x="576.5" y="-69" font-family="Helvetica,sans-Serif" font-size="10.00">condition_variable</text>
</g>
<!-- Node12&#45;&gt;Node14 -->
<g id="edge17" class="edge"><title>Node12&#45;&gt;Node14</title>
<path fill="none" stroke="midnightblue" d="M576.5,-123.475C576.5,-115.08 576.5,-101.981 576.5,-91.1631"/>
<polygon fill="midnightblue" stroke="midnightblue" points="580,-91.0091 576.5,-81.0091 573,-91.0091 580,-91.0091"/>
</g>
<!-- Node15 -->
<g id="node15" class="node"><title>Node15</title>
<polygon fill="none" stroke="#bfbfbf" points="642.5,-62 642.5,-81 686.5,-81 686.5,-62 642.5,-62"/>
<text text-anchor="middle" x="664.5" y="-69" font-family="Helvetica,sans-Serif" font-size="10.00">thread</text>
</g>
<!-- Node12&#45;&gt;Node15 -->
<g id="edge18" class="edge"><title>Node12&#45;&gt;Node15</title>
<path fill="none" stroke="midnightblue" d="M589.108,-123.475C603.223,-113.931 626.331,-98.3073 643.249,-86.8683"/>
<polygon fill="midnightblue" stroke="midnightblue" points="645.591,-89.5098 651.915,-81.0091 641.671,-83.7109 645.591,-89.5098"/>
</g>
</g>
</svg>
