<?xml version="1.0" encoding="UTF-8" standalone="no"?>
<!DOCTYPE svg PUBLIC "-//W3C//DTD SVG 1.1//EN"
 "http://www.w3.org/Graphics/SVG/1.1/DTD/svg11.dtd">
<!-- Generated by graphviz version 2.38.0 (20140413.2041)
 -->
<!-- Title: /home/arturo/Code/advr&#45;superbuild/external/MatLogger2/src/matio_backend.h Pages: 1 -->
<svg width="320pt" height="173pt"
 viewBox="0.00 0.00 319.50 173.00" xmlns="http://www.w3.org/2000/svg" xmlns:xlink="http://www.w3.org/1999/xlink">
<g id="graph0" class="graph" transform="scale(1 1) rotate(0) translate(4 169)">
<title>/home/arturo/Code/advr&#45;superbuild/external/MatLogger2/src/matio_backend.h</title>
<!-- Node1 -->
<g id="node1" class="node"><title>Node1</title>
<polygon fill="#bfbfbf" stroke="black" points="42,-123.5 42,-164.5 197,-164.5 197,-123.5 42,-123.5"/>
<text text-anchor="start" x="50" y="-152.5" font-family="Helvetica,sans-Serif" font-size="10.00">/home/arturo/Code/advr</text>
<text text-anchor="start" x="50" y="-141.5" font-family="Helvetica,sans-Serif" font-size="10.00">&#45;superbuild/external/MatLogger2</text>
<text text-anchor="middle" x="119.5" y="-130.5" font-family="Helvetica,sans-Serif" font-size="10.00">/src/matio_backend.h</text>
</g>
<!-- Node2 -->
<g id="node2" class="node"><title>Node2</title>
<polygon fill="none" stroke="#bfbfbf" points="0,-62 0,-81 43,-81 43,-62 0,-62"/>
<text text-anchor="middle" x="21.5" y="-69" font-family="Helvetica,sans-Serif" font-size="10.00">cstdio</text>
</g>
<!-- Node1&#45;&gt;Node2 -->
<g id="edge1" class="edge"><title>Node1&#45;&gt;Node2</title>
<path fill="none" stroke="midnightblue" d="M92.2015,-123.362C76.2551,-111.89 56.4659,-97.654 41.8829,-87.1632"/>
<polygon fill="midnightblue" stroke="midnightblue" points="43.7183,-84.172 33.5566,-81.1734 39.6304,-89.8544 43.7183,-84.172"/>
</g>
<!-- Node3 -->
<g id="node3" class="node"><title>Node3</title>
<polygon fill="none" stroke="#bfbfbf" points="61.5,-56.5 61.5,-86.5 177.5,-86.5 177.5,-56.5 61.5,-56.5"/>
<text text-anchor="start" x="69.5" y="-74.5" font-family="Helvetica,sans-Serif" font-size="10.00">matio&#45;cmake/matio/src</text>
<text text-anchor="middle" x="119.5" y="-63.5" font-family="Helvetica,sans-Serif" font-size="10.00">/matio.h</text>
</g>
<!-- Node1&#45;&gt;Node3 -->
<g id="edge2" class="edge"><title>Node1&#45;&gt;Node3</title>
<path fill="none" stroke="midnightblue" d="M119.5,-123.362C119.5,-115.226 119.5,-105.7 119.5,-97.105"/>
<polygon fill="midnightblue" stroke="midnightblue" points="123,-96.8916 119.5,-86.8916 116,-96.8916 123,-96.8916"/>
</g>
<!-- Node4 -->
<g id="node4" class="node"><title>Node4</title>
<g id="a_node4"><a xlink:href="matlogger2__backend_8h.html" target="_top" xlink:title="matlogger2_backend.h">
<polygon fill="none" stroke="black" points="196,-62 196,-81 311,-81 311,-62 196,-62"/>
<text text-anchor="middle" x="253.5" y="-69" font-family="Helvetica,sans-Serif" font-size="10.00">matlogger2_backend.h</text>
</a>
</g>
</g>
<!-- Node1&#45;&gt;Node4 -->
<g id="edge3" class="edge"><title>Node1&#45;&gt;Node4</title>
<path fill="none" stroke="midnightblue" d="M156.826,-123.362C179.556,-111.403 207.996,-96.4403 228.13,-85.8479"/>
<polygon fill="midnightblue" stroke="midnightblue" points="229.794,-88.927 237.014,-81.1734 226.535,-82.7321 229.794,-88.927"/>
</g>
<!-- Node5 -->
<g id="node5" class="node"><title>Node5</title>
<polygon fill="none" stroke="#bfbfbf" points="200,-0.5 200,-19.5 241,-19.5 241,-0.5 200,-0.5"/>
<text text-anchor="middle" x="220.5" y="-7.5" font-family="Helvetica,sans-Serif" font-size="10.00">string</text>
</g>
<!-- Node4&#45;&gt;Node5 -->
<g id="edge4" class="edge"><title>Node4&#45;&gt;Node5</title>
<path fill="none" stroke="midnightblue" d="M248.772,-61.9751C243.92,-53.2268 236.234,-39.3691 230.1,-28.3093"/>
<polygon fill="midnightblue" stroke="midnightblue" points="233.13,-26.5566 225.219,-19.5091 227.009,-29.9517 233.13,-26.5566"/>
</g>
<!-- Node6 -->
<g id="node6" class="node"><title>Node6</title>
<polygon fill="none" stroke="#bfbfbf" points="259.5,-0.5 259.5,-19.5 311.5,-19.5 311.5,-0.5 259.5,-0.5"/>
<text text-anchor="middle" x="285.5" y="-7.5" font-family="Helvetica,sans-Serif" font-size="10.00">memory</text>
</g>
<!-- Node4&#45;&gt;Node6 -->
<g id="edge5" class="edge"><title>Node4&#45;&gt;Node6</title>
<path fill="none" stroke="midnightblue" d="M258.085,-61.9751C262.742,-53.3152 270.092,-39.6486 276.01,-28.6453"/>
<polygon fill="midnightblue" stroke="midnightblue" points="279.27,-29.974 280.924,-19.5091 273.105,-26.6584 279.27,-29.974"/>
</g>
</g>
</svg>
