<?xml version="1.0" encoding="UTF-8" standalone="no"?>
<!DOCTYPE svg PUBLIC "-//W3C//DTD SVG 1.1//EN"
 "http://www.w3.org/Graphics/SVG/1.1/DTD/svg11.dtd">
<!-- Generated by graphviz version 2.38.0 (20140413.2041)
 -->
<!-- Title: /home/arturo/Code/advr&#45;superbuild/external/MatLogger2/src/matio_backend.cpp Pages: 1 -->
<svg width="320pt" height="229pt"
 viewBox="0.00 0.00 319.50 229.00" xmlns="http://www.w3.org/2000/svg" xmlns:xlink="http://www.w3.org/1999/xlink">
<g id="graph0" class="graph" transform="scale(1 1) rotate(0) translate(4 225)">
<title>/home/arturo/Code/advr&#45;superbuild/external/MatLogger2/src/matio_backend.cpp</title>
<!-- Node1 -->
<g id="node1" class="node"><title>Node1</title>
<polygon fill="#bfbfbf" stroke="black" points="42,-179.5 42,-220.5 197,-220.5 197,-179.5 42,-179.5"/>
<text text-anchor="start" x="50" y="-208.5" font-family="Helvetica,sans-Serif" font-size="10.00">/home/arturo/Code/advr</text>
<text text-anchor="start" x="50" y="-197.5" font-family="Helvetica,sans-Serif" font-size="10.00">&#45;superbuild/external/MatLogger2</text>
<text text-anchor="middle" x="119.5" y="-186.5" font-family="Helvetica,sans-Serif" font-size="10.00">/src/matio_backend.cpp</text>
</g>
<!-- Node2 -->
<g id="node2" class="node"><title>Node2</title>
<g id="a_node2"><a xlink:href="matio__backend_8h.html" target="_top" xlink:title="matio_backend.h">
<polygon fill="none" stroke="black" points="74,-123.5 74,-142.5 165,-142.5 165,-123.5 74,-123.5"/>
<text text-anchor="middle" x="119.5" y="-130.5" font-family="Helvetica,sans-Serif" font-size="10.00">matio_backend.h</text>
</a>
</g>
</g>
<!-- Node1&#45;&gt;Node2 -->
<g id="edge1" class="edge"><title>Node1&#45;&gt;Node2</title>
<path fill="none" stroke="midnightblue" d="M119.5,-179.498C119.5,-171.065 119.5,-161.235 119.5,-152.874"/>
<polygon fill="midnightblue" stroke="midnightblue" points="123,-152.652 119.5,-142.652 116,-152.653 123,-152.652"/>
</g>
<!-- Node3 -->
<g id="node3" class="node"><title>Node3</title>
<polygon fill="none" stroke="#bfbfbf" points="0,-62 0,-81 43,-81 43,-62 0,-62"/>
<text text-anchor="middle" x="21.5" y="-69" font-family="Helvetica,sans-Serif" font-size="10.00">cstdio</text>
</g>
<!-- Node2&#45;&gt;Node3 -->
<g id="edge2" class="edge"><title>Node2&#45;&gt;Node3</title>
<path fill="none" stroke="midnightblue" d="M105.459,-123.475C89.449,-113.755 63.0496,-97.7266 44.126,-86.2372"/>
<polygon fill="midnightblue" stroke="midnightblue" points="45.8793,-83.2072 35.515,-81.0091 42.2464,-89.1907 45.8793,-83.2072"/>
</g>
<!-- Node4 -->
<g id="node4" class="node"><title>Node4</title>
<polygon fill="none" stroke="#bfbfbf" points="61.5,-56.5 61.5,-86.5 177.5,-86.5 177.5,-56.5 61.5,-56.5"/>
<text text-anchor="start" x="69.5" y="-74.5" font-family="Helvetica,sans-Serif" font-size="10.00">matio&#45;cmake/matio/src</text>
<text text-anchor="middle" x="119.5" y="-63.5" font-family="Helvetica,sans-Serif" font-size="10.00">/matio.h</text>
</g>
<!-- Node2&#45;&gt;Node4 -->
<g id="edge3" class="edge"><title>Node2&#45;&gt;Node4</title>
<path fill="none" stroke="midnightblue" d="M119.5,-123.475C119.5,-116.471 119.5,-106.192 119.5,-96.6956"/>
<polygon fill="midnightblue" stroke="midnightblue" points="123,-96.5229 119.5,-86.523 116,-96.523 123,-96.5229"/>
</g>
<!-- Node5 -->
<g id="node5" class="node"><title>Node5</title>
<g id="a_node5"><a xlink:href="matlogger2__backend_8h.html" target="_top" xlink:title="matlogger2_backend.h">
<polygon fill="none" stroke="black" points="196,-62 196,-81 311,-81 311,-62 196,-62"/>
<text text-anchor="middle" x="253.5" y="-69" font-family="Helvetica,sans-Serif" font-size="10.00">matlogger2_backend.h</text>
</a>
</g>
</g>
<!-- Node2&#45;&gt;Node5 -->
<g id="edge4" class="edge"><title>Node2&#45;&gt;Node5</title>
<path fill="none" stroke="midnightblue" d="M138.699,-123.475C161.287,-113.445 198.999,-96.7002 225.001,-85.1546"/>
<polygon fill="midnightblue" stroke="midnightblue" points="226.618,-88.2662 234.337,-81.0091 223.777,-81.8685 226.618,-88.2662"/>
</g>
<!-- Node6 -->
<g id="node6" class="node"><title>Node6</title>
<polygon fill="none" stroke="#bfbfbf" points="200,-0.5 200,-19.5 241,-19.5 241,-0.5 200,-0.5"/>
<text text-anchor="middle" x="220.5" y="-7.5" font-family="Helvetica,sans-Serif" font-size="10.00">string</text>
</g>
<!-- Node5&#45;&gt;Node6 -->
<g id="edge5" class="edge"><title>Node5&#45;&gt;Node6</title>
<path fill="none" stroke="midnightblue" d="M248.772,-61.9751C243.92,-53.2268 236.234,-39.3691 230.1,-28.3093"/>
<polygon fill="midnightblue" stroke="midnightblue" points="233.13,-26.5566 225.219,-19.5091 227.009,-29.9517 233.13,-26.5566"/>
</g>
<!-- Node7 -->
<g id="node7" class="node"><title>Node7</title>
<polygon fill="none" stroke="#bfbfbf" points="259.5,-0.5 259.5,-19.5 311.5,-19.5 311.5,-0.5 259.5,-0.5"/>
<text text-anchor="middle" x="285.5" y="-7.5" font-family="Helvetica,sans-Serif" font-size="10.00">memory</text>
</g>
<!-- Node5&#45;&gt;Node7 -->
<g id="edge6" class="edge"><title>Node5&#45;&gt;Node7</title>
<path fill="none" stroke="midnightblue" d="M258.085,-61.9751C262.742,-53.3152 270.092,-39.6486 276.01,-28.6453"/>
<polygon fill="midnightblue" stroke="midnightblue" points="279.27,-29.974 280.924,-19.5091 273.105,-26.6584 279.27,-29.974"/>
</g>
</g>
</svg>
