<?xml version="1.0" encoding="UTF-8" standalone="no"?>
<!DOCTYPE svg PUBLIC "-//W3C//DTD SVG 1.1//EN"
 "http://www.w3.org/Graphics/SVG/1.1/DTD/svg11.dtd">
<!-- Generated by graphviz version 2.38.0 (20140413.2041)
 -->
<!-- Title: /home/arturo/Code/advr&#45;superbuild/external/MatLogger2/src/matlogger2.cpp Pages: 1 -->
<svg width="701pt" height="229pt"
 viewBox="0.00 0.00 700.50 229.00" xmlns="http://www.w3.org/2000/svg" xmlns:xlink="http://www.w3.org/1999/xlink">
<g id="graph0" class="graph" transform="scale(1 1) rotate(0) translate(4 225)">
<title>/home/arturo/Code/advr&#45;superbuild/external/MatLogger2/src/matlogger2.cpp</title>
<!-- Node1 -->
<g id="node1" class="node"><title>Node1</title>
<polygon fill="#bfbfbf" stroke="black" points="286,-179.5 286,-220.5 441,-220.5 441,-179.5 286,-179.5"/>
<text text-anchor="start" x="294" y="-208.5" font-family="Helvetica,sans-Serif" font-size="10.00">/home/arturo/Code/advr</text>
<text text-anchor="start" x="294" y="-197.5" font-family="Helvetica,sans-Serif" font-size="10.00">&#45;superbuild/external/MatLogger2</text>
<text text-anchor="middle" x="363.5" y="-186.5" font-family="Helvetica,sans-Serif" font-size="10.00">/src/matlogger2.cpp</text>
</g>
<!-- Node2 -->
<g id="node2" class="node"><title>Node2</title>
<g id="a_node2"><a xlink:href="matlogger2_8h.html" target="_top" xlink:title="matlogger2/matlogger2.h">
<polygon fill="none" stroke="black" points="194.5,-123.5 194.5,-142.5 318.5,-142.5 318.5,-123.5 194.5,-123.5"/>
<text text-anchor="middle" x="256.5" y="-130.5" font-family="Helvetica,sans-Serif" font-size="10.00">matlogger2/matlogger2.h</text>
</a>
</g>
</g>
<!-- Node1&#45;&gt;Node2 -->
<g id="edge1" class="edge"><title>Node1&#45;&gt;Node2</title>
<path fill="none" stroke="midnightblue" d="M331.396,-179.498C314.676,-169.34 294.617,-157.155 279.468,-147.952"/>
<polygon fill="midnightblue" stroke="midnightblue" points="281.107,-144.853 270.743,-142.652 277.473,-150.836 281.107,-144.853"/>
</g>
<!-- Node8 -->
<g id="node8" class="node"><title>Node8</title>
<polygon fill="none" stroke="#bfbfbf" points="336.5,-123.5 336.5,-142.5 390.5,-142.5 390.5,-123.5 336.5,-123.5"/>
<text text-anchor="middle" x="363.5" y="-130.5" font-family="Helvetica,sans-Serif" font-size="10.00">iostream</text>
</g>
<!-- Node1&#45;&gt;Node8 -->
<g id="edge10" class="edge"><title>Node1&#45;&gt;Node8</title>
<path fill="none" stroke="midnightblue" d="M363.5,-179.498C363.5,-171.065 363.5,-161.235 363.5,-152.874"/>
<polygon fill="midnightblue" stroke="midnightblue" points="367,-152.652 363.5,-142.652 360,-152.653 367,-152.652"/>
</g>
<!-- Node9 -->
<g id="node9" class="node"><title>Node9</title>
<polygon fill="none" stroke="#bfbfbf" points="409,-123.5 409,-142.5 538,-142.5 538,-123.5 409,-123.5"/>
<text text-anchor="middle" x="473.5" y="-130.5" font-family="Helvetica,sans-Serif" font-size="10.00">boost/algorithm/string.hpp</text>
</g>
<!-- Node1&#45;&gt;Node9 -->
<g id="edge11" class="edge"><title>Node1&#45;&gt;Node9</title>
<path fill="none" stroke="midnightblue" d="M396.504,-179.498C413.693,-169.34 434.314,-157.155 449.888,-147.952"/>
<polygon fill="midnightblue" stroke="midnightblue" points="452.029,-150.753 458.857,-142.652 448.467,-144.727 452.029,-150.753"/>
</g>
<!-- Node10 -->
<g id="node10" class="node"><title>Node10</title>
<g id="a_node10"><a xlink:href="thread_8h.html" target="_top" xlink:title="thread.h">
<polygon fill="none" stroke="black" points="556.5,-123.5 556.5,-142.5 608.5,-142.5 608.5,-123.5 556.5,-123.5"/>
<text text-anchor="middle" x="582.5" y="-130.5" font-family="Helvetica,sans-Serif" font-size="10.00">thread.h</text>
</a>
</g>
</g>
<!-- Node1&#45;&gt;Node10 -->
<g id="edge12" class="edge"><title>Node1&#45;&gt;Node10</title>
<path fill="none" stroke="midnightblue" d="M429.207,-179.498C467.747,-168.059 514.953,-154.048 546.713,-144.622"/>
<polygon fill="midnightblue" stroke="midnightblue" points="547.861,-147.932 556.452,-141.731 545.869,-141.221 547.861,-147.932"/>
</g>
<!-- Node14 -->
<g id="node14" class="node"><title>Node14</title>
<g id="a_node14"><a xlink:href="matlogger2__backend_8h.html" target="_top" xlink:title="matlogger2_backend.h">
<polygon fill="none" stroke="black" points="0,-62 0,-81 115,-81 115,-62 0,-62"/>
<text text-anchor="middle" x="57.5" y="-69" font-family="Helvetica,sans-Serif" font-size="10.00">matlogger2_backend.h</text>
</a>
</g>
</g>
<!-- Node1&#45;&gt;Node14 -->
<g id="edge16" class="edge"><title>Node1&#45;&gt;Node14</title>
<path fill="none" stroke="midnightblue" d="M290.001,-179.448C257.443,-169.881 219.01,-157.331 185.5,-143 146.821,-126.459 104.547,-101.768 79.5626,-86.4246"/>
<polygon fill="midnightblue" stroke="midnightblue" points="81.2203,-83.3343 70.8772,-81.0384 77.531,-89.2832 81.2203,-83.3343"/>
</g>
<!-- Node3 -->
<g id="node3" class="node"><title>Node3</title>
<polygon fill="none" stroke="#bfbfbf" points="174,-0.5 174,-19.5 215,-19.5 215,-0.5 174,-0.5"/>
<text text-anchor="middle" x="194.5" y="-7.5" font-family="Helvetica,sans-Serif" font-size="10.00">string</text>
</g>
<!-- Node2&#45;&gt;Node3 -->
<g id="edge2" class="edge"><title>Node2&#45;&gt;Node3</title>
<path fill="none" stroke="midnightblue" d="M239.616,-123.444C226.496,-115.809 209.127,-103.319 200.5,-87 191.142,-69.2988 190.748,-45.9782 191.993,-29.8611"/>
<polygon fill="midnightblue" stroke="midnightblue" points="195.509,-29.8954 193.083,-19.5819 188.548,-29.1568 195.509,-29.8954"/>
</g>
<!-- Node4 -->
<g id="node4" class="node"><title>Node4</title>
<polygon fill="none" stroke="#bfbfbf" points="103.5,-0.5 103.5,-19.5 155.5,-19.5 155.5,-0.5 103.5,-0.5"/>
<text text-anchor="middle" x="129.5" y="-7.5" font-family="Helvetica,sans-Serif" font-size="10.00">memory</text>
</g>
<!-- Node2&#45;&gt;Node4 -->
<g id="edge3" class="edge"><title>Node2&#45;&gt;Node4</title>
<path fill="none" stroke="midnightblue" d="M240.612,-123.48C226.125,-115.269 204.59,-101.919 188.5,-87 169.25,-69.1519 151.4,-44.5758 140.486,-28.2585"/>
<polygon fill="midnightblue" stroke="midnightblue" points="143.304,-26.1736 134.903,-19.7188 137.445,-30.0041 143.304,-26.1736"/>
</g>
<!-- Node5 -->
<g id="node5" class="node"><title>Node5</title>
<polygon fill="none" stroke="#bfbfbf" points="330,-62 330,-81 413,-81 413,-62 330,-62"/>
<text text-anchor="middle" x="371.5" y="-69" font-family="Helvetica,sans-Serif" font-size="10.00">unordered_map</text>
</g>
<!-- Node2&#45;&gt;Node5 -->
<g id="edge4" class="edge"><title>Node2&#45;&gt;Node5</title>
<path fill="none" stroke="midnightblue" d="M272.977,-123.475C292.105,-113.578 323.873,-97.1416 346.152,-85.6151"/>
<polygon fill="midnightblue" stroke="midnightblue" points="347.781,-88.713 355.054,-81.0091 344.564,-82.4958 347.781,-88.713"/>
</g>
<!-- Node6 -->
<g id="node6" class="node"><title>Node6</title>
<polygon fill="none" stroke="#bfbfbf" points="317.5,-0.5 317.5,-19.5 421.5,-19.5 421.5,-0.5 317.5,-0.5"/>
<text text-anchor="middle" x="369.5" y="-7.5" font-family="Helvetica,sans-Serif" font-size="10.00">eigen3/Eigen/Dense</text>
</g>
<!-- Node2&#45;&gt;Node6 -->
<g id="edge5" class="edge"><title>Node2&#45;&gt;Node6</title>
<path fill="none" stroke="midnightblue" d="M316.16,-123.452C357.939,-116.104 408.524,-103.989 421.5,-87 429.863,-76.0507 427.228,-68.5309 421.5,-56 415.723,-43.3602 404.448,-32.911 393.869,-25.2737"/>
<polygon fill="midnightblue" stroke="midnightblue" points="395.542,-22.1817 385.283,-19.5333 391.651,-28.0009 395.542,-22.1817"/>
</g>
<!-- Node7 -->
<g id="node7" class="node"><title>Node7</title>
<g id="a_node7"><a xlink:href="var__buffer_8h.html" target="_top" xlink:title="matlogger2/utils/var\l_buffer.h">
<polygon fill="none" stroke="black" points="209.5,-56.5 209.5,-86.5 311.5,-86.5 311.5,-56.5 209.5,-56.5"/>
<text text-anchor="start" x="217.5" y="-74.5" font-family="Helvetica,sans-Serif" font-size="10.00">matlogger2/utils/var</text>
<text text-anchor="middle" x="260.5" y="-63.5" font-family="Helvetica,sans-Serif" font-size="10.00">_buffer.h</text>
</a>
</g>
</g>
<!-- Node2&#45;&gt;Node7 -->
<g id="edge6" class="edge"><title>Node2&#45;&gt;Node7</title>
<path fill="none" stroke="midnightblue" d="M257.073,-123.475C257.544,-116.471 258.235,-106.192 258.873,-96.6956"/>
<polygon fill="midnightblue" stroke="midnightblue" points="262.379,-96.7352 259.557,-86.523 255.394,-96.2657 262.379,-96.7352"/>
</g>
<!-- Node7&#45;&gt;Node3 -->
<g id="edge7" class="edge"><title>Node7&#45;&gt;Node3</title>
<path fill="none" stroke="midnightblue" d="M244.859,-56.3993C234.873,-47.3967 221.922,-35.7214 211.655,-26.4652"/>
<polygon fill="midnightblue" stroke="midnightblue" points="213.875,-23.7541 204.104,-19.6578 209.187,-28.9533 213.875,-23.7541"/>
</g>
<!-- Node7&#45;&gt;Node4 -->
<g id="edge8" class="edge"><title>Node7&#45;&gt;Node4</title>
<path fill="none" stroke="midnightblue" d="M229.455,-56.3993C207.77,-46.55 179.041,-33.5014 157.949,-23.9217"/>
<polygon fill="midnightblue" stroke="midnightblue" points="159.114,-20.6065 148.562,-19.6578 156.219,-26.9799 159.114,-20.6065"/>
</g>
<!-- Node7&#45;&gt;Node6 -->
<g id="edge9" class="edge"><title>Node7&#45;&gt;Node6</title>
<path fill="none" stroke="midnightblue" d="M286.331,-56.3993C303.967,-46.7728 327.2,-34.0902 344.628,-24.5772"/>
<polygon fill="midnightblue" stroke="midnightblue" points="346.539,-27.5213 353.64,-19.6578 343.185,-21.3771 346.539,-27.5213"/>
</g>
<!-- Node11 -->
<g id="node11" class="node"><title>Node11</title>
<polygon fill="none" stroke="#bfbfbf" points="472.5,-62 472.5,-81 516.5,-81 516.5,-62 472.5,-62"/>
<text text-anchor="middle" x="494.5" y="-69" font-family="Helvetica,sans-Serif" font-size="10.00">mutex</text>
</g>
<!-- Node10&#45;&gt;Node11 -->
<g id="edge13" class="edge"><title>Node10&#45;&gt;Node11</title>
<path fill="none" stroke="midnightblue" d="M569.892,-123.475C555.777,-113.931 532.669,-98.3073 515.751,-86.8683"/>
<polygon fill="midnightblue" stroke="midnightblue" points="517.329,-83.7109 507.085,-81.0091 513.409,-89.5098 517.329,-83.7109"/>
</g>
<!-- Node12 -->
<g id="node12" class="node"><title>Node12</title>
<polygon fill="none" stroke="#bfbfbf" points="535,-62 535,-81 630,-81 630,-62 535,-62"/>
<text text-anchor="middle" x="582.5" y="-69" font-family="Helvetica,sans-Serif" font-size="10.00">condition_variable</text>
</g>
<!-- Node10&#45;&gt;Node12 -->
<g id="edge14" class="edge"><title>Node10&#45;&gt;Node12</title>
<path fill="none" stroke="midnightblue" d="M582.5,-123.475C582.5,-115.08 582.5,-101.981 582.5,-91.1631"/>
<polygon fill="midnightblue" stroke="midnightblue" points="586,-91.0091 582.5,-81.0091 579,-91.0091 586,-91.0091"/>
</g>
<!-- Node13 -->
<g id="node13" class="node"><title>Node13</title>
<polygon fill="none" stroke="#bfbfbf" points="648.5,-62 648.5,-81 692.5,-81 692.5,-62 648.5,-62"/>
<text text-anchor="middle" x="670.5" y="-69" font-family="Helvetica,sans-Serif" font-size="10.00">thread</text>
</g>
<!-- Node10&#45;&gt;Node13 -->
<g id="edge15" class="edge"><title>Node10&#45;&gt;Node13</title>
<path fill="none" stroke="midnightblue" d="M595.108,-123.475C609.223,-113.931 632.331,-98.3073 649.249,-86.8683"/>
<polygon fill="midnightblue" stroke="midnightblue" points="651.591,-89.5098 657.915,-81.0091 647.671,-83.7109 651.591,-89.5098"/>
</g>
<!-- Node14&#45;&gt;Node3 -->
<g id="edge17" class="edge"><title>Node14&#45;&gt;Node3</title>
<path fill="none" stroke="midnightblue" d="M77.1288,-61.9751C100.324,-51.9013 139.119,-35.0525 165.713,-23.5023"/>
<polygon fill="midnightblue" stroke="midnightblue" points="167.13,-26.703 174.908,-19.5091 164.341,-20.2824 167.13,-26.703"/>
</g>
<!-- Node14&#45;&gt;Node4 -->
<g id="edge18" class="edge"><title>Node14&#45;&gt;Node4</title>
<path fill="none" stroke="midnightblue" d="M67.8158,-61.9751C79.1506,-52.6082 97.5733,-37.3839 111.339,-26.0081"/>
<polygon fill="midnightblue" stroke="midnightblue" points="113.724,-28.5773 119.203,-19.5091 109.265,-23.1813 113.724,-28.5773"/>
</g>
</g>
</svg>
