<?xml version="1.0" encoding="UTF-8" standalone="no"?>
<!DOCTYPE svg PUBLIC "-//W3C//DTD SVG 1.1//EN"
 "http://www.w3.org/Graphics/SVG/1.1/DTD/svg11.dtd">
<!-- Generated by graphviz version 2.38.0 (20140413.2041)
 -->
<!-- Title: /home/arturo/Code/advr&#45;superbuild/external/MatLogger2/src/matlogger2_backend.h Pages: 1 -->
<svg width="509pt" height="206pt"
 viewBox="0.00 0.00 509.00 206.00" xmlns="http://www.w3.org/2000/svg" xmlns:xlink="http://www.w3.org/1999/xlink">
<g id="graph0" class="graph" transform="scale(1 1) rotate(0) translate(4 202)">
<title>/home/arturo/Code/advr&#45;superbuild/external/MatLogger2/src/matlogger2_backend.h</title>
<!-- Node1 -->
<g id="node1" class="node"><title>Node1</title>
<polygon fill="#bfbfbf" stroke="black" points="173,-156.5 173,-197.5 328,-197.5 328,-156.5 173,-156.5"/>
<text text-anchor="start" x="181" y="-185.5" font-family="Helvetica,sans-Serif" font-size="10.00">/home/arturo/Code/advr</text>
<text text-anchor="start" x="181" y="-174.5" font-family="Helvetica,sans-Serif" font-size="10.00">&#45;superbuild/external/MatLogger2</text>
<text text-anchor="middle" x="250.5" y="-163.5" font-family="Helvetica,sans-Serif" font-size="10.00">/src/matlogger2_backend.h</text>
</g>
<!-- Node2 -->
<g id="node2" class="node"><title>Node2</title>
<g id="a_node2"><a xlink:href="matio__backend_8h.html" target="_top" xlink:title="/home/arturo/Code/advr\l&#45;superbuild/external/MatLogger2\l/src/matio_backend.h">
<polygon fill="none" stroke="black" points="0,-78.5 0,-119.5 155,-119.5 155,-78.5 0,-78.5"/>
<text text-anchor="start" x="8" y="-107.5" font-family="Helvetica,sans-Serif" font-size="10.00">/home/arturo/Code/advr</text>
<text text-anchor="start" x="8" y="-96.5" font-family="Helvetica,sans-Serif" font-size="10.00">&#45;superbuild/external/MatLogger2</text>
<text text-anchor="middle" x="77.5" y="-85.5" font-family="Helvetica,sans-Serif" font-size="10.00">/src/matio_backend.h</text>
</a>
</g>
</g>
<!-- Node1&#45;&gt;Node2 -->
<g id="edge1" class="edge"><title>Node1&#45;&gt;Node2</title>
<path fill="none" stroke="midnightblue" d="M196.617,-152.329C172.612,-141.783 144.681,-129.513 121.901,-119.506"/>
<polygon fill="midnightblue" stroke="midnightblue" points="195.385,-155.61 205.948,-156.428 198.2,-149.202 195.385,-155.61"/>
</g>
<!-- Node4 -->
<g id="node4" class="node"><title>Node4</title>
<g id="a_node4"><a xlink:href="matlogger2_8cpp.html" target="_top" xlink:title="/home/arturo/Code/advr\l&#45;superbuild/external/MatLogger2\l/src/matlogger2.cpp">
<polygon fill="none" stroke="black" points="173,-78.5 173,-119.5 328,-119.5 328,-78.5 173,-78.5"/>
<text text-anchor="start" x="181" y="-107.5" font-family="Helvetica,sans-Serif" font-size="10.00">/home/arturo/Code/advr</text>
<text text-anchor="start" x="181" y="-96.5" font-family="Helvetica,sans-Serif" font-size="10.00">&#45;superbuild/external/MatLogger2</text>
<text text-anchor="middle" x="250.5" y="-85.5" font-family="Helvetica,sans-Serif" font-size="10.00">/src/matlogger2.cpp</text>
</a>
</g>
</g>
<!-- Node1&#45;&gt;Node4 -->
<g id="edge3" class="edge"><title>Node1&#45;&gt;Node4</title>
<path fill="none" stroke="midnightblue" d="M250.5,-146.297C250.5,-137.301 250.5,-127.653 250.5,-119.506"/>
<polygon fill="midnightblue" stroke="midnightblue" points="247,-146.428 250.5,-156.428 254,-146.428 247,-146.428"/>
</g>
<!-- Node5 -->
<g id="node5" class="node"><title>Node5</title>
<g id="a_node5"><a xlink:href="matlogger2__backend_8cpp.html" target="_top" xlink:title="/home/arturo/Code/advr\l&#45;superbuild/external/MatLogger2\l/src/matlogger2_backend.cpp">
<polygon fill="none" stroke="black" points="346,-78.5 346,-119.5 501,-119.5 501,-78.5 346,-78.5"/>
<text text-anchor="start" x="354" y="-107.5" font-family="Helvetica,sans-Serif" font-size="10.00">/home/arturo/Code/advr</text>
<text text-anchor="start" x="354" y="-96.5" font-family="Helvetica,sans-Serif" font-size="10.00">&#45;superbuild/external/MatLogger2</text>
<text text-anchor="middle" x="423.5" y="-85.5" font-family="Helvetica,sans-Serif" font-size="10.00">/src/matlogger2_backend.cpp</text>
</a>
</g>
</g>
<!-- Node1&#45;&gt;Node5 -->
<g id="edge4" class="edge"><title>Node1&#45;&gt;Node5</title>
<path fill="none" stroke="midnightblue" d="M304.383,-152.329C328.388,-141.783 356.319,-129.513 379.099,-119.506"/>
<polygon fill="midnightblue" stroke="midnightblue" points="302.8,-149.202 295.052,-156.428 305.615,-155.61 302.8,-149.202"/>
</g>
<!-- Node3 -->
<g id="node3" class="node"><title>Node3</title>
<g id="a_node3"><a xlink:href="matio__backend_8cpp.html" target="_top" xlink:title="/home/arturo/Code/advr\l&#45;superbuild/external/MatLogger2\l/src/matio_backend.cpp">
<polygon fill="none" stroke="black" points="0,-0.5 0,-41.5 155,-41.5 155,-0.5 0,-0.5"/>
<text text-anchor="start" x="8" y="-29.5" font-family="Helvetica,sans-Serif" font-size="10.00">/home/arturo/Code/advr</text>
<text text-anchor="start" x="8" y="-18.5" font-family="Helvetica,sans-Serif" font-size="10.00">&#45;superbuild/external/MatLogger2</text>
<text text-anchor="middle" x="77.5" y="-7.5" font-family="Helvetica,sans-Serif" font-size="10.00">/src/matio_backend.cpp</text>
</a>
</g>
</g>
<!-- Node2&#45;&gt;Node3 -->
<g id="edge2" class="edge"><title>Node2&#45;&gt;Node3</title>
<path fill="none" stroke="midnightblue" d="M77.5,-68.2965C77.5,-59.3009 77.5,-49.6532 77.5,-41.5056"/>
<polygon fill="midnightblue" stroke="midnightblue" points="74.0001,-68.4281 77.5,-78.4281 81.0001,-68.4281 74.0001,-68.4281"/>
</g>
</g>
</svg>
