<?xml version="1.0" encoding="UTF-8" standalone="no"?>
<!DOCTYPE svg PUBLIC "-//W3C//DTD SVG 1.1//EN"
 "http://www.w3.org/Graphics/SVG/1.1/DTD/svg11.dtd">
<!-- Generated by graphviz version 2.38.0 (20140413.2041)
 -->
<!-- Title: /home/arturo/Code/advr&#45;superbuild/external/MatLogger2/include/matlogger2/matlogger2.h Pages: 1 -->
<svg width="332pt" height="173pt"
 viewBox="0.00 0.00 332.00 173.00" xmlns="http://www.w3.org/2000/svg" xmlns:xlink="http://www.w3.org/1999/xlink">
<g id="graph0" class="graph" transform="scale(1 1) rotate(0) translate(4 169)">
<title>/home/arturo/Code/advr&#45;superbuild/external/MatLogger2/include/matlogger2/matlogger2.h</title>
<!-- Node1 -->
<g id="node1" class="node"><title>Node1</title>
<polygon fill="#bfbfbf" stroke="black" points="53,-123.5 53,-164.5 214,-164.5 214,-123.5 53,-123.5"/>
<text text-anchor="start" x="61" y="-152.5" font-family="Helvetica,sans-Serif" font-size="10.00">/home/arturo/Code/advr</text>
<text text-anchor="start" x="61" y="-141.5" font-family="Helvetica,sans-Serif" font-size="10.00">&#45;superbuild/external/MatLogger2</text>
<text text-anchor="middle" x="133.5" y="-130.5" font-family="Helvetica,sans-Serif" font-size="10.00">/include/matlogger2/matlogger2.h</text>
</g>
<!-- Node2 -->
<g id="node2" class="node"><title>Node2</title>
<polygon fill="none" stroke="#bfbfbf" points="0,-0.5 0,-19.5 41,-19.5 41,-0.5 0,-0.5"/>
<text text-anchor="middle" x="20.5" y="-7.5" font-family="Helvetica,sans-Serif" font-size="10.00">string</text>
</g>
<!-- Node1&#45;&gt;Node2 -->
<g id="edge1" class="edge"><title>Node1&#45;&gt;Node2</title>
<path fill="none" stroke="midnightblue" d="M105.911,-123.302C93.0418,-113.311 78.0541,-100.458 66.5,-87 51.0061,-68.9534 37.4861,-45.0691 29.1846,-28.9298"/>
<polygon fill="midnightblue" stroke="midnightblue" points="32.1147,-26.9632 24.5146,-19.5815 25.8526,-30.0915 32.1147,-26.9632"/>
</g>
<!-- Node3 -->
<g id="node3" class="node"><title>Node3</title>
<polygon fill="none" stroke="#bfbfbf" points="68.5,-0.5 68.5,-19.5 120.5,-19.5 120.5,-0.5 68.5,-0.5"/>
<text text-anchor="middle" x="94.5" y="-7.5" font-family="Helvetica,sans-Serif" font-size="10.00">memory</text>
</g>
<!-- Node1&#45;&gt;Node3 -->
<g id="edge2" class="edge"><title>Node1&#45;&gt;Node3</title>
<path fill="none" stroke="midnightblue" d="M103.625,-123.416C91.9209,-113.961 79.8035,-101.506 73.5,-87 65.0965,-67.6618 74.4081,-44.0808 83.1591,-28.3635"/>
<polygon fill="midnightblue" stroke="midnightblue" points="86.2144,-30.0745 88.3721,-19.7017 80.2168,-26.4649 86.2144,-30.0745"/>
</g>
<!-- Node4 -->
<g id="node4" class="node"><title>Node4</title>
<polygon fill="none" stroke="#bfbfbf" points="241,-62 241,-81 324,-81 324,-62 241,-62"/>
<text text-anchor="middle" x="282.5" y="-69" font-family="Helvetica,sans-Serif" font-size="10.00">unordered_map</text>
</g>
<!-- Node1&#45;&gt;Node4 -->
<g id="edge3" class="edge"><title>Node1&#45;&gt;Node4</title>
<path fill="none" stroke="midnightblue" d="M175.005,-123.362C200.508,-111.295 232.476,-96.1692 254.895,-85.5614"/>
<polygon fill="midnightblue" stroke="midnightblue" points="256.627,-88.6141 264.169,-81.1734 253.633,-82.2867 256.627,-88.6141"/>
</g>
<!-- Node5 -->
<g id="node5" class="node"><title>Node5</title>
<polygon fill="none" stroke="#bfbfbf" points="155.5,-0.5 155.5,-19.5 259.5,-19.5 259.5,-0.5 155.5,-0.5"/>
<text text-anchor="middle" x="207.5" y="-7.5" font-family="Helvetica,sans-Serif" font-size="10.00">eigen3/Eigen/Dense</text>
</g>
<!-- Node1&#45;&gt;Node5 -->
<g id="edge4" class="edge"><title>Node1&#45;&gt;Node5</title>
<path fill="none" stroke="midnightblue" d="M161.51,-123.32C173.17,-113.688 185.766,-101.122 193.5,-87 203.249,-69.198 206.365,-45.8957 207.282,-29.8106"/>
<polygon fill="midnightblue" stroke="midnightblue" points="210.789,-29.667 207.626,-19.5554 203.793,-29.4327 210.789,-29.667"/>
</g>
<!-- Node6 -->
<g id="node6" class="node"><title>Node6</title>
<g id="a_node6"><a xlink:href="var__buffer_8h.html" target="_top" xlink:title="matlogger2/utils/var\l_buffer.h">
<polygon fill="none" stroke="black" points="82.5,-56.5 82.5,-86.5 184.5,-86.5 184.5,-56.5 82.5,-56.5"/>
<text text-anchor="start" x="90.5" y="-74.5" font-family="Helvetica,sans-Serif" font-size="10.00">matlogger2/utils/var</text>
<text text-anchor="middle" x="133.5" y="-63.5" font-family="Helvetica,sans-Serif" font-size="10.00">_buffer.h</text>
</a>
</g>
</g>
<!-- Node1&#45;&gt;Node6 -->
<g id="edge5" class="edge"><title>Node1&#45;&gt;Node6</title>
<path fill="none" stroke="midnightblue" d="M133.5,-123.362C133.5,-115.226 133.5,-105.7 133.5,-97.105"/>
<polygon fill="midnightblue" stroke="midnightblue" points="137,-96.8916 133.5,-86.8916 130,-96.8916 137,-96.8916"/>
</g>
<!-- Node6&#45;&gt;Node2 -->
<g id="edge6" class="edge"><title>Node6&#45;&gt;Node2</title>
<path fill="none" stroke="midnightblue" d="M106.721,-56.3993C88.4382,-46.7728 64.3519,-34.0902 46.2852,-24.5772"/>
<polygon fill="midnightblue" stroke="midnightblue" points="47.4215,-21.22 36.9425,-19.6578 44.1602,-27.4138 47.4215,-21.22"/>
</g>
<!-- Node6&#45;&gt;Node3 -->
<g id="edge7" class="edge"><title>Node6&#45;&gt;Node3</title>
<path fill="none" stroke="midnightblue" d="M124.258,-56.3993C118.707,-47.9315 111.607,-37.0991 105.734,-28.1393"/>
<polygon fill="midnightblue" stroke="midnightblue" points="108.584,-26.1026 100.175,-19.6578 102.73,-29.94 108.584,-26.1026"/>
</g>
<!-- Node6&#45;&gt;Node5 -->
<g id="edge8" class="edge"><title>Node6&#45;&gt;Node5</title>
<path fill="none" stroke="midnightblue" d="M151.037,-56.3993C162.344,-47.3076 177.042,-35.4899 188.607,-26.1909"/>
<polygon fill="midnightblue" stroke="midnightblue" points="191.132,-28.6517 196.732,-19.6578 186.746,-23.1964 191.132,-28.6517"/>
</g>
</g>
</svg>
