<?xml version="1.0" encoding="UTF-8" standalone="no"?>
<!DOCTYPE svg PUBLIC "-//W3C//DTD SVG 1.1//EN"
 "http://www.w3.org/Graphics/SVG/1.1/DTD/svg11.dtd">
<!-- Generated by graphviz version 2.38.0 (20140413.2041)
 -->
<!-- Title: /home/arturo/Code/advr&#45;superbuild/external/MatLogger2/src/boost/spsc_queue_logger.hpp Pages: 1 -->
<svg width="1486pt" height="117pt"
 viewBox="0.00 0.00 1486.00 117.00" xmlns="http://www.w3.org/2000/svg" xmlns:xlink="http://www.w3.org/1999/xlink">
<g id="graph0" class="graph" transform="scale(1 1) rotate(0) translate(4 113)">
<title>/home/arturo/Code/advr&#45;superbuild/external/MatLogger2/src/boost/spsc_queue_logger.hpp</title>
<!-- Node1 -->
<g id="node1" class="node"><title>Node1</title>
<polygon fill="#bfbfbf" stroke="black" points="608,-67.5 608,-108.5 774,-108.5 774,-67.5 608,-67.5"/>
<text text-anchor="start" x="616" y="-96.5" font-family="Helvetica,sans-Serif" font-size="10.00">/home/arturo/Code/advr</text>
<text text-anchor="start" x="616" y="-85.5" font-family="Helvetica,sans-Serif" font-size="10.00">&#45;superbuild/external/MatLogger2</text>
<text text-anchor="middle" x="691" y="-74.5" font-family="Helvetica,sans-Serif" font-size="10.00">/src/boost/spsc_queue_logger.hpp</text>
</g>
<!-- Node2 -->
<g id="node2" class="node"><title>Node2</title>
<polygon fill="none" stroke="#bfbfbf" points="0,-6 0,-25 56,-25 56,-6 0,-6"/>
<text text-anchor="middle" x="28" y="-13" font-family="Helvetica,sans-Serif" font-size="10.00">algorithm</text>
</g>
<!-- Node1&#45;&gt;Node2 -->
<g id="edge1" class="edge"><title>Node1&#45;&gt;Node2</title>
<path fill="none" stroke="midnightblue" d="M607.779,-87.018C486.706,-85.3732 255.642,-75.9108 65,-31 62.1669,-30.3326 59.2628,-29.4914 56.3879,-28.5518"/>
<polygon fill="midnightblue" stroke="midnightblue" points="57.4664,-25.2197 46.8724,-25.0877 55.0718,-31.7974 57.4664,-25.2197"/>
</g>
<!-- Node3 -->
<g id="node3" class="node"><title>Node3</title>
<polygon fill="none" stroke="#bfbfbf" points="74,-6 74,-25 126,-25 126,-6 74,-6"/>
<text text-anchor="middle" x="100" y="-13" font-family="Helvetica,sans-Serif" font-size="10.00">memory</text>
</g>
<!-- Node1&#45;&gt;Node3 -->
<g id="edge2" class="edge"><title>Node1&#45;&gt;Node3</title>
<path fill="none" stroke="midnightblue" d="M607.742,-86.1506C497.868,-83.3294 299.173,-72.3211 135,-31 132.489,-30.3679 129.922,-29.5872 127.376,-28.7186"/>
<polygon fill="midnightblue" stroke="midnightblue" points="128.413,-25.3681 117.823,-25.0611 125.91,-31.9054 128.413,-25.3681"/>
</g>
<!-- Node4 -->
<g id="node4" class="node"><title>Node4</title>
<polygon fill="none" stroke="#bfbfbf" points="144.5,-6 144.5,-25 275.5,-25 275.5,-6 144.5,-6"/>
<text text-anchor="middle" x="210" y="-13" font-family="Helvetica,sans-Serif" font-size="10.00">boost/aligned_storage.hpp</text>
</g>
<!-- Node1&#45;&gt;Node4 -->
<g id="edge3" class="edge"><title>Node1&#45;&gt;Node4</title>
<path fill="none" stroke="midnightblue" d="M607.775,-76.953C525.368,-66.6744 395.689,-49.6109 284,-31 276.637,-29.7731 268.884,-28.3735 261.278,-26.939"/>
<polygon fill="midnightblue" stroke="midnightblue" points="261.892,-23.4929 251.411,-25.0445 260.572,-30.3673 261.892,-23.4929"/>
</g>
<!-- Node5 -->
<g id="node5" class="node"><title>Node5</title>
<polygon fill="none" stroke="#bfbfbf" points="293.5,-6 293.5,-25 382.5,-25 382.5,-6 293.5,-6"/>
<text text-anchor="middle" x="338" y="-13" font-family="Helvetica,sans-Serif" font-size="10.00">boost/assert.hpp</text>
</g>
<!-- Node1&#45;&gt;Node5 -->
<g id="edge4" class="edge"><title>Node1&#45;&gt;Node5</title>
<path fill="none" stroke="midnightblue" d="M607.851,-73.3764C547.423,-63.0149 463.81,-47.7254 391,-31 386.592,-29.9875 382,-28.8528 377.442,-27.6758"/>
<polygon fill="midnightblue" stroke="midnightblue" points="378.167,-24.2473 367.604,-25.0628 376.37,-31.0127 378.167,-24.2473"/>
</g>
<!-- Node6 -->
<g id="node6" class="node"><title>Node6</title>
<polygon fill="none" stroke="#bfbfbf" points="400.5,-6 400.5,-25 519.5,-25 519.5,-6 400.5,-6"/>
<text text-anchor="middle" x="460" y="-13" font-family="Helvetica,sans-Serif" font-size="10.00">boost/static_assert.hpp</text>
</g>
<!-- Node1&#45;&gt;Node6 -->
<g id="edge5" class="edge"><title>Node1&#45;&gt;Node6</title>
<path fill="none" stroke="midnightblue" d="M626.96,-67.4554C585.399,-54.771 532.662,-38.676 497.7,-28.0058"/>
<polygon fill="midnightblue" stroke="midnightblue" points="498.48,-24.5845 487.894,-25.013 496.436,-31.2797 498.48,-24.5845"/>
</g>
<!-- Node7 -->
<g id="node7" class="node"><title>Node7</title>
<polygon fill="none" stroke="#bfbfbf" points="538,-6 538,-25 624,-25 624,-6 538,-6"/>
<text text-anchor="middle" x="581" y="-13" font-family="Helvetica,sans-Serif" font-size="10.00">boost/utility.hpp</text>
</g>
<!-- Node1&#45;&gt;Node7 -->
<g id="edge6" class="edge"><title>Node1&#45;&gt;Node7</title>
<path fill="none" stroke="midnightblue" d="M660.359,-67.3618C642.122,-55.6737 619.408,-41.1158 602.959,-30.5734"/>
<polygon fill="midnightblue" stroke="midnightblue" points="604.841,-27.6227 594.533,-25.1734 601.064,-33.5161 604.841,-27.6227"/>
</g>
<!-- Node8 -->
<g id="node8" class="node"><title>Node8</title>
<polygon fill="none" stroke="#bfbfbf" points="642,-0.5 642,-30.5 740,-30.5 740,-0.5 642,-0.5"/>
<text text-anchor="start" x="650" y="-18.5" font-family="Helvetica,sans-Serif" font-size="10.00">boost/utility/enable</text>
<text text-anchor="middle" x="691" y="-7.5" font-family="Helvetica,sans-Serif" font-size="10.00">_if.hpp</text>
</g>
<!-- Node1&#45;&gt;Node8 -->
<g id="edge7" class="edge"><title>Node1&#45;&gt;Node8</title>
<path fill="none" stroke="midnightblue" d="M691,-67.3618C691,-59.226 691,-49.6997 691,-41.105"/>
<polygon fill="midnightblue" stroke="midnightblue" points="694.5,-40.8916 691,-30.8916 687.5,-40.8916 694.5,-40.8916"/>
</g>
<!-- Node9 -->
<g id="node9" class="node"><title>Node9</title>
<polygon fill="none" stroke="#bfbfbf" points="758.5,-0.5 758.5,-30.5 871.5,-30.5 871.5,-0.5 758.5,-0.5"/>
<text text-anchor="start" x="766.5" y="-18.5" font-family="Helvetica,sans-Serif" font-size="10.00">boost/type_traits/has</text>
<text text-anchor="middle" x="815" y="-7.5" font-family="Helvetica,sans-Serif" font-size="10.00">_trivial_destructor.hpp</text>
</g>
<!-- Node1&#45;&gt;Node9 -->
<g id="edge8" class="edge"><title>Node1&#45;&gt;Node9</title>
<path fill="none" stroke="midnightblue" d="M725.541,-67.3618C742.834,-57.53 763.698,-45.6677 780.926,-35.8729"/>
<polygon fill="midnightblue" stroke="midnightblue" points="783.114,-38.6552 790.077,-30.67 779.654,-32.5699 783.114,-38.6552"/>
</g>
<!-- Node10 -->
<g id="node10" class="node"><title>Node10</title>
<polygon fill="none" stroke="#bfbfbf" points="890,-0.5 890,-30.5 990,-30.5 990,-0.5 890,-0.5"/>
<text text-anchor="start" x="898" y="-18.5" font-family="Helvetica,sans-Serif" font-size="10.00">boost/type_traits/is</text>
<text text-anchor="middle" x="940" y="-7.5" font-family="Helvetica,sans-Serif" font-size="10.00">_convertible.hpp</text>
</g>
<!-- Node1&#45;&gt;Node10 -->
<g id="edge9" class="edge"><title>Node1&#45;&gt;Node10</title>
<path fill="none" stroke="midnightblue" d="M760.03,-67.4554C797.787,-56.7652 844.1,-43.6525 880.288,-33.4063"/>
<polygon fill="midnightblue" stroke="midnightblue" points="881.543,-36.6887 890.211,-30.5968 879.636,-29.9535 881.543,-36.6887"/>
</g>
<!-- Node11 -->
<g id="node11" class="node"><title>Node11</title>
<polygon fill="none" stroke="#bfbfbf" points="1008,-0.5 1008,-30.5 1112,-30.5 1112,-0.5 1008,-0.5"/>
<text text-anchor="start" x="1016" y="-18.5" font-family="Helvetica,sans-Serif" font-size="10.00">boost/lockfree/detail</text>
<text text-anchor="middle" x="1060" y="-7.5" font-family="Helvetica,sans-Serif" font-size="10.00">/atomic.hpp</text>
</g>
<!-- Node1&#45;&gt;Node11 -->
<g id="edge10" class="edge"><title>Node1&#45;&gt;Node11</title>
<path fill="none" stroke="midnightblue" d="M774.245,-73.1067C833.927,-62.8564 916.453,-48.0956 997.875,-31.1766"/>
<polygon fill="midnightblue" stroke="midnightblue" points="998.725,-34.5746 1007.8,-29.1028 997.293,-27.7227 998.725,-34.5746"/>
</g>
<!-- Node12 -->
<g id="node12" class="node"><title>Node12</title>
<polygon fill="none" stroke="#bfbfbf" points="1130,-0.5 1130,-30.5 1234,-30.5 1234,-0.5 1130,-0.5"/>
<text text-anchor="start" x="1138" y="-18.5" font-family="Helvetica,sans-Serif" font-size="10.00">boost/lockfree/detail</text>
<text text-anchor="middle" x="1182" y="-7.5" font-family="Helvetica,sans-Serif" font-size="10.00">/copy_payload.hpp</text>
</g>
<!-- Node1&#45;&gt;Node12 -->
<g id="edge11" class="edge"><title>Node1&#45;&gt;Node12</title>
<path fill="none" stroke="midnightblue" d="M774.233,-78.7525C858.854,-69.7784 993.878,-53.8412 1119.64,-31.1365"/>
<polygon fill="midnightblue" stroke="midnightblue" points="1120.62,-34.5146 1129.83,-29.277 1119.37,-27.6282 1120.62,-34.5146"/>
</g>
<!-- Node13 -->
<g id="node13" class="node"><title>Node13</title>
<polygon fill="none" stroke="#bfbfbf" points="1252,-0.5 1252,-30.5 1356,-30.5 1356,-0.5 1252,-0.5"/>
<text text-anchor="start" x="1260" y="-18.5" font-family="Helvetica,sans-Serif" font-size="10.00">boost/lockfree/detail</text>
<text text-anchor="middle" x="1304" y="-7.5" font-family="Helvetica,sans-Serif" font-size="10.00">/parameter.hpp</text>
</g>
<!-- Node1&#45;&gt;Node13 -->
<g id="edge12" class="edge"><title>Node1&#45;&gt;Node13</title>
<path fill="none" stroke="midnightblue" d="M774.222,-82C880.612,-74.8373 1070.56,-59.4597 1241.89,-31.0453"/>
<polygon fill="midnightblue" stroke="midnightblue" points="1242.57,-34.4814 1251.85,-29.3757 1241.41,-27.5778 1242.57,-34.4814"/>
</g>
<!-- Node14 -->
<g id="node14" class="node"><title>Node14</title>
<polygon fill="none" stroke="#bfbfbf" points="1374,-0.5 1374,-30.5 1478,-30.5 1478,-0.5 1374,-0.5"/>
<text text-anchor="start" x="1382" y="-18.5" font-family="Helvetica,sans-Serif" font-size="10.00">boost/lockfree/detail</text>
<text text-anchor="middle" x="1426" y="-7.5" font-family="Helvetica,sans-Serif" font-size="10.00">/prefix.hpp</text>
</g>
<!-- Node1&#45;&gt;Node14 -->
<g id="edge13" class="edge"><title>Node1&#45;&gt;Node14</title>
<path fill="none" stroke="midnightblue" d="M774.231,-84.1143C900.056,-78.8597 1146.23,-65.1006 1363.85,-31.0247"/>
<polygon fill="midnightblue" stroke="midnightblue" points="1364.53,-34.4601 1373.86,-29.4391 1363.44,-27.5463 1364.53,-34.4601"/>
</g>
</g>
</svg>
