<?xml version="1.0" encoding="UTF-8" standalone="no"?>
<!DOCTYPE svg PUBLIC "-//W3C//DTD SVG 1.1//EN"
 "http://www.w3.org/Graphics/SVG/1.1/DTD/svg11.dtd">
<!-- Generated by graphviz version 2.38.0 (20140413.2041)
 -->
<!-- Title: /home/arturo/Code/advr&#45;superbuild/external/MatLogger2/include/matlogger2/utils/var_buffer.h Pages: 1 -->
<svg width="425pt" height="217pt"
 viewBox="0.00 0.00 425.00 217.00" xmlns="http://www.w3.org/2000/svg" xmlns:xlink="http://www.w3.org/1999/xlink">
<g id="graph0" class="graph" transform="scale(1 1) rotate(0) translate(4 213)">
<title>/home/arturo/Code/advr&#45;superbuild/external/MatLogger2/include/matlogger2/utils/var_buffer.h</title>
<!-- Node1 -->
<g id="node1" class="node"><title>Node1</title>
<polygon fill="#bfbfbf" stroke="black" points="174,-156.5 174,-208.5 329,-208.5 329,-156.5 174,-156.5"/>
<text text-anchor="start" x="182" y="-196.5" font-family="Helvetica,sans-Serif" font-size="10.00">/home/arturo/Code/advr</text>
<text text-anchor="start" x="182" y="-185.5" font-family="Helvetica,sans-Serif" font-size="10.00">&#45;superbuild/external/MatLogger2</text>
<text text-anchor="start" x="182" y="-174.5" font-family="Helvetica,sans-Serif" font-size="10.00">/include/matlogger2/utils/var</text>
<text text-anchor="middle" x="251.5" y="-163.5" font-family="Helvetica,sans-Serif" font-size="10.00">_buffer.h</text>
</g>
<!-- Node2 -->
<g id="node2" class="node"><title>Node2</title>
<g id="a_node2"><a xlink:href="matlogger2_8h.html" target="_top" xlink:title="/home/arturo/Code/advr\l&#45;superbuild/external/MatLogger2\l/include/matlogger2/matlogger2.h">
<polygon fill="none" stroke="black" points="83,-78.5 83,-119.5 244,-119.5 244,-78.5 83,-78.5"/>
<text text-anchor="start" x="91" y="-107.5" font-family="Helvetica,sans-Serif" font-size="10.00">/home/arturo/Code/advr</text>
<text text-anchor="start" x="91" y="-96.5" font-family="Helvetica,sans-Serif" font-size="10.00">&#45;superbuild/external/MatLogger2</text>
<text text-anchor="middle" x="163.5" y="-85.5" font-family="Helvetica,sans-Serif" font-size="10.00">/include/matlogger2/matlogger2.h</text>
</a>
</g>
</g>
<!-- Node1&#45;&gt;Node2 -->
<g id="edge1" class="edge"><title>Node1&#45;&gt;Node2</title>
<path fill="none" stroke="midnightblue" d="M216.792,-149.356C205.948,-139.313 194.315,-128.539 184.694,-119.628"/>
<polygon fill="midnightblue" stroke="midnightblue" points="214.424,-151.933 224.139,-156.16 219.18,-146.797 214.424,-151.933"/>
</g>
<!-- Node5 -->
<g id="node5" class="node"><title>Node5</title>
<g id="a_node5"><a xlink:href="var__buffer_8cpp.html" target="_top" xlink:title="/home/arturo/Code/advr\l&#45;superbuild/external/MatLogger2\l/src/var_buffer.cpp">
<polygon fill="none" stroke="black" points="262,-78.5 262,-119.5 417,-119.5 417,-78.5 262,-78.5"/>
<text text-anchor="start" x="270" y="-107.5" font-family="Helvetica,sans-Serif" font-size="10.00">/home/arturo/Code/advr</text>
<text text-anchor="start" x="270" y="-96.5" font-family="Helvetica,sans-Serif" font-size="10.00">&#45;superbuild/external/MatLogger2</text>
<text text-anchor="middle" x="339.5" y="-85.5" font-family="Helvetica,sans-Serif" font-size="10.00">/src/var_buffer.cpp</text>
</a>
</g>
</g>
<!-- Node1&#45;&gt;Node5 -->
<g id="edge4" class="edge"><title>Node1&#45;&gt;Node5</title>
<path fill="none" stroke="midnightblue" d="M286.208,-149.356C297.052,-139.313 308.685,-128.539 318.306,-119.628"/>
<polygon fill="midnightblue" stroke="midnightblue" points="283.82,-146.797 278.861,-156.16 288.576,-151.933 283.82,-146.797"/>
</g>
<!-- Node3 -->
<g id="node3" class="node"><title>Node3</title>
<g id="a_node3"><a xlink:href="mat__appender_8cpp.html" target="_top" xlink:title="/home/arturo/Code/advr\l&#45;superbuild/external/MatLogger2\l/src/mat_appender.cpp">
<polygon fill="none" stroke="black" points="0,-0.5 0,-41.5 155,-41.5 155,-0.5 0,-0.5"/>
<text text-anchor="start" x="8" y="-29.5" font-family="Helvetica,sans-Serif" font-size="10.00">/home/arturo/Code/advr</text>
<text text-anchor="start" x="8" y="-18.5" font-family="Helvetica,sans-Serif" font-size="10.00">&#45;superbuild/external/MatLogger2</text>
<text text-anchor="middle" x="77.5" y="-7.5" font-family="Helvetica,sans-Serif" font-size="10.00">/src/mat_appender.cpp</text>
</a>
</g>
</g>
<!-- Node2&#45;&gt;Node3 -->
<g id="edge2" class="edge"><title>Node2&#45;&gt;Node3</title>
<path fill="none" stroke="midnightblue" d="M133.828,-71.7785C122.586,-61.8432 109.994,-50.7159 99.5721,-41.5056"/>
<polygon fill="midnightblue" stroke="midnightblue" points="131.542,-74.4288 141.353,-78.4281 136.177,-69.1834 131.542,-74.4288"/>
</g>
<!-- Node4 -->
<g id="node4" class="node"><title>Node4</title>
<g id="a_node4"><a xlink:href="matlogger2_8cpp.html" target="_top" xlink:title="/home/arturo/Code/advr\l&#45;superbuild/external/MatLogger2\l/src/matlogger2.cpp">
<polygon fill="none" stroke="black" points="173,-0.5 173,-41.5 328,-41.5 328,-0.5 173,-0.5"/>
<text text-anchor="start" x="181" y="-29.5" font-family="Helvetica,sans-Serif" font-size="10.00">/home/arturo/Code/advr</text>
<text text-anchor="start" x="181" y="-18.5" font-family="Helvetica,sans-Serif" font-size="10.00">&#45;superbuild/external/MatLogger2</text>
<text text-anchor="middle" x="250.5" y="-7.5" font-family="Helvetica,sans-Serif" font-size="10.00">/src/matlogger2.cpp</text>
</a>
</g>
</g>
<!-- Node2&#45;&gt;Node4 -->
<g id="edge3" class="edge"><title>Node2&#45;&gt;Node4</title>
<path fill="none" stroke="midnightblue" d="M193.517,-71.7785C204.89,-61.8432 217.628,-50.7159 228.171,-41.5056"/>
<polygon fill="midnightblue" stroke="midnightblue" points="191.133,-69.2133 185.905,-78.4281 195.738,-74.4851 191.133,-69.2133"/>
</g>
</g>
</svg>
